<?xml version="1.0" encoding="UTF-8" standalone="no"?>
<svg
   fill="none"
   viewBox="0 0 22 22"
   version="1.1"
   id="svg2"
   sodipodi:docname="applications-other-symbolic.svg"
   inkscape:version="1.4.4 (unknown)"
   xmlns:inkscape="http://www.inkscape.org/namespaces/inkscape"
   xmlns:sodipodi="http://sodipodi.sourceforge.net/DTD/sodipodi-0.dtd"
   xmlns:xlink="http://www.w3.org/1999/xlink"
   xmlns="http://www.w3.org/2000/svg"
   xmlns:svg="http://www.w3.org/2000/svg">
  <sodipodi:namedview
     id="namedview2"
     pagecolor="#ffffff"
     bordercolor="#000000"
     borderopacity="0.25"
     inkscape:showpageshadow="2"
     inkscape:pageopacity="0.0"
     inkscape:pagecheckerboard="0"
     inkscape:deskcolor="#d1d1d1"
     inkscape:zoom="34.409091"
     inkscape:cx="11.014531"
     inkscape:cy="11"
     inkscape:window-width="1920"
     inkscape:window-height="994"
     inkscape:window-x="0"
     inkscape:window-y="0"
     inkscape:window-maximized="1"
     inkscape:current-layer="svg2" />
  <defs
     id="defs1">
    <linearGradient
       id="linearGradient2"
       inkscape:collect="always">
      <stop
         style="stop-color:#006a80;stop-opacity:1;"
         offset="0"
         id="stop2" />
      <stop
         style="stop-color:#c8e0e7;stop-opacity:1;"
         offset="1"
         id="stop3" />
    </linearGradient>
    <style
       type="text/css"
       id="current-color-scheme">
      .ColorScheme-Text { color: #232629; }
    </style>
    <linearGradient
       inkscape:collect="always"
       xlink:href="#linearGradient2"
       id="linearGradient3"
       x1="11.660502"
       y1="3"
       x2="11.385734"
       y2="19"
       gradientUnits="userSpaceOnUse" />
    <linearGradient
       inkscape:collect="always"
       xlink:href="#linearGradient2"
       id="linearGradient4"
       x1="10.533686"
       y1="9.4597092"
       x2="10.449142"
       y2="12.365918"
       gradientUnits="userSpaceOnUse" />
  </defs>
  <path
     fill-rule="evenodd"
     d="M4 11a7 7 0 1 0 14 0 7 7 0 0 0-14 0m7-8a8 8 0 1 0 0 16 8 8 0 0 0 0-16"
     clip-rule="evenodd"
     style="fill:url(#linearGradient3)"
     class="ColorScheme-Text"
     id="path1" />
  <path
     d="M8 11a1 1 0 1 1-2 0 1 1 0 0 1 2 0m4 0a1 1 0 1 1-2 0 1 1 0 0 1 2 0m4 0a1 1 0 1 1-2 0 1 1 0 0 1 2 0"
     style="fill:url(#linearGradient4)"
     class="ColorScheme-Text"
     id="path2" />
</svg>
