<?xml version="1.0" encoding="UTF-8" standalone="no"?>
<svg
   fill="none"
   version="1.1"
   viewBox="0 0 22 22"
   id="svg1"
   sodipodi:docname="applications-education-mathematics-symbolic.svg"
   inkscape:version="1.4.4 (unknown)"
   xmlns:inkscape="http://www.inkscape.org/namespaces/inkscape"
   xmlns:sodipodi="http://sodipodi.sourceforge.net/DTD/sodipodi-0.dtd"
   xmlns:xlink="http://www.w3.org/1999/xlink"
   xmlns="http://www.w3.org/2000/svg"
   xmlns:svg="http://www.w3.org/2000/svg">
  <sodipodi:namedview
     id="namedview1"
     pagecolor="#ffffff"
     bordercolor="#000000"
     borderopacity="0.25"
     inkscape:showpageshadow="2"
     inkscape:pageopacity="0.0"
     inkscape:pagecheckerboard="0"
     inkscape:deskcolor="#d1d1d1"
     inkscape:zoom="34.409091"
     inkscape:cx="11.014531"
     inkscape:cy="11"
     inkscape:window-width="1920"
     inkscape:window-height="994"
     inkscape:window-x="0"
     inkscape:window-y="0"
     inkscape:window-maximized="1"
     inkscape:current-layer="svg1" />
  <defs
     id="defs1">
    <linearGradient
       id="linearGradient1"
       inkscape:collect="always">
      <stop
         style="stop-color:#006a80;stop-opacity:1;"
         offset="0"
         id="stop1" />
      <stop
         style="stop-color:#c8e0e7;stop-opacity:1;"
         offset="1"
         id="stop2" />
    </linearGradient>
    <style
       id="current-color-scheme"
       type="text/css">.ColorScheme-Text { color: #dedede; }</style>
    <linearGradient
       inkscape:collect="always"
       xlink:href="#linearGradient1"
       id="linearGradient2"
       x1="10.747688"
       y1="3"
       x2="10.496697"
       y2="19"
       gradientUnits="userSpaceOnUse" />
  </defs>
  <path
     class="ColorScheme-Text"
     d="m5 3c-1.662 0-3 1.338-3 3v10c0 1.662 1.338 3 3 3h12c1.662 0 3-1.338 3-3v-10c0-1.662-1.338-3-3-3h-12zm0 1h12c1.108 0 2 0.892 2 2v10c0 1.108-0.892 2-2 2h-12c-1.108 0-2-0.892-2-2v-10c0-1.108 0.892-2 2-2zm5.6699 3-1.6699 4-1.125 3 0.125-1.5v-2.5h-2.5v1h1.5v4h1.5508l2.7793-7h5.1699v-1h-5.8301zm3.3301 2c-1 0-2 0.5-2 1.5h1c0-0.5 0.5-0.59961 1-0.59961s1 0.099609 1 0.59961c0 0.732-0.80227 1.1962-1.8223 1.7852-0.373 0.215-0.77573 0.44684-1.1777 0.71484v1h4v-0.90039h-2l-1 0.09961s3-0.84922 3-2.6992c0-1.1-1-1.5-2-1.5z"
     fill="currentColor"
     id="path1"
     style="fill:url(#linearGradient2)" />
</svg>
