<?xml version="1.0" encoding="UTF-8" standalone="no"?>
<!-- Created with Inkscape (http://www.inkscape.org/) -->

<svg
   width="22"
   version="1.1"
   height="22"
   viewBox="0 0 5.8208332 5.8208335"
   id="svg1"
   sodipodi:docname="face-kiss-1.svg"
   inkscape:version="1.4.4 (unknown)"
   xmlns:inkscape="http://www.inkscape.org/namespaces/inkscape"
   xmlns:sodipodi="http://sodipodi.sourceforge.net/DTD/sodipodi-0.dtd"
   xmlns="http://www.w3.org/2000/svg"
   xmlns:svg="http://www.w3.org/2000/svg">
  <sodipodi:namedview
     id="namedview1"
     pagecolor="#ffffff"
     bordercolor="#000000"
     borderopacity="0.25"
     inkscape:showpageshadow="2"
     inkscape:pageopacity="0.0"
     inkscape:pagecheckerboard="0"
     inkscape:deskcolor="#d1d1d1"
     inkscape:zoom="8.6022727"
     inkscape:cx="7.0911493"
     inkscape:cy="38.768824"
     inkscape:window-width="1920"
     inkscape:window-height="994"
     inkscape:window-x="0"
     inkscape:window-y="0"
     inkscape:window-maximized="1"
     inkscape:current-layer="layer1" />
  <defs
     id="defs4">
    <linearGradient
       id="paint480_linear_14_36462"
       x1="6874.0298"
       y1="23102.199"
       x2="6877.4399"
       y2="23728.9"
       gradientUnits="userSpaceOnUse">
      <stop
         stop-color="#FDCF18"
         id="stop10438" />
      <stop
         offset="0.47"
         stop-color="#F5AB0C"
         id="stop10439" />
      <stop
         offset="0.93"
         stop-color="#ED8700"
         id="stop10440" />
    </linearGradient>
    <radialGradient
       id="paint481_radial_14_36462"
       cx="0"
       cy="0"
       r="1"
       gradientUnits="userSpaceOnUse"
       gradientTransform="matrix(585.148,0,0,585.148,6865.59,23128.6)">
      <stop
         offset="0.07"
         stop-color="#FEFEE2"
         id="stop10441" />
      <stop
         offset="0.28"
         stop-color="#FDEE8C"
         id="stop10442" />
      <stop
         offset="0.49"
         stop-color="#FCDE36"
         id="stop10443" />
      <stop
         offset="0.82"
         stop-color="#F5B820"
         id="stop10444" />
      <stop
         offset="1"
         stop-color="#EE910A"
         id="stop10445" />
    </radialGradient>
    <linearGradient
       id="paint482_linear_14_36462"
       x1="7120.6802"
       y1="23532.4"
       x2="7132.9902"
       y2="23488.4"
       gradientUnits="userSpaceOnUse">
      <stop
         stop-color="#FF3E2E"
         id="stop10446" />
      <stop
         offset="0.63"
         stop-color="#FF988F"
         id="stop10447" />
      <stop
         offset="1"
         stop-color="#FFF1F0"
         id="stop10448" />
    </linearGradient>
    <mask
       id="mask1"
       maskUnits="userSpaceOnUse"
       x="6439"
       y="22970"
       width="872"
       height="872">
      <path
         d="M 7310.06,22970.4 H 6439.2 v 870.9 h 870.86 z"
         fill="#ffffff"
         id="path1" />
    </mask>
    <mask
       maskUnits="userSpaceOnUse"
       id="mask2">
      <g
         id="g2"
         transform="matrix(139.84254,0,0,139.84254,6479.7919,-17720.935)">
        <path
           d="m 5.9371641,290.97965 h -6.22743282 v 6.22772 H 5.9371641 Z"
           fill="#ffffff"
           id="path2"
           style="stroke-width:0.0071509" />
      </g>
    </mask>
    <mask
       maskUnits="userSpaceOnUse"
       id="mask3">
      <g
         id="g3"
         transform="matrix(139.84254,0,0,139.84254,6479.7919,-17720.935)">
        <path
           d="m 5.9371641,290.97965 h -6.22743282 v 6.22772 H 5.9371641 Z"
           fill="#ffffff"
           id="path3"
           style="stroke-width:0.0071509" />
      </g>
    </mask>
    <mask
       maskUnits="userSpaceOnUse"
       id="mask4">
      <g
         id="g4"
         transform="matrix(139.84254,0,0,139.84254,6479.7919,-17720.935)">
        <path
           d="m 5.9371641,290.97965 h -6.22743282 v 6.22772 H 5.9371641 Z"
           fill="#ffffff"
           id="path4"
           style="stroke-width:0.0071509" />
      </g>
    </mask>
    <mask
       maskUnits="userSpaceOnUse"
       id="mask5">
      <g
         id="g5"
         transform="matrix(139.84254,0,0,139.84254,6479.7919,-17720.935)">
        <path
           d="m 5.9371641,290.97965 h -6.22743282 v 6.22772 H 5.9371641 Z"
           fill="#ffffff"
           id="path5"
           style="stroke-width:0.0071509" />
      </g>
    </mask>
    <mask
       maskUnits="userSpaceOnUse"
       id="mask6">
      <g
         id="g6"
         transform="matrix(139.84254,0,0,139.84254,6479.7919,-17720.935)">
        <path
           d="m 5.9371641,290.97965 h -6.22743282 v 6.22772 H 5.9371641 Z"
           fill="#ffffff"
           id="path6"
           style="stroke-width:0.0071509" />
      </g>
    </mask>
    <mask
       maskUnits="userSpaceOnUse"
       id="mask7">
      <g
         id="g7"
         transform="matrix(139.84254,0,0,139.84254,6479.7919,-17720.935)">
        <path
           d="m 5.9371641,290.97965 h -6.22743282 v 6.22772 H 5.9371641 Z"
           fill="#ffffff"
           id="path7"
           style="stroke-width:0.0071509" />
      </g>
    </mask>
    <mask
       maskUnits="userSpaceOnUse"
       id="mask8">
      <g
         id="g8"
         transform="matrix(139.84254,0,0,139.84254,6479.7919,-17720.935)">
        <path
           d="m 5.9371641,290.97965 h -6.22743282 v 6.22772 H 5.9371641 Z"
           fill="#ffffff"
           id="path8"
           style="stroke-width:0.0071509" />
      </g>
    </mask>
    <mask
       maskUnits="userSpaceOnUse"
       id="mask9">
      <g
         id="g9"
         transform="matrix(139.84254,0,0,139.84254,6479.7919,-17720.935)">
        <path
           d="m 5.9371641,290.97965 h -6.22743282 v 6.22772 H 5.9371641 Z"
           fill="#ffffff"
           id="path9"
           style="stroke-width:0.0071509" />
      </g>
    </mask>
    <mask
       maskUnits="userSpaceOnUse"
       id="mask10">
      <g
         id="g10"
         transform="matrix(139.84254,0,0,139.84254,6479.7919,-17720.935)">
        <path
           d="m 5.9371641,290.97965 h -6.22743282 v 6.22772 H 5.9371641 Z"
           fill="#ffffff"
           id="path10"
           style="stroke-width:0.0071509" />
      </g>
    </mask>
    <mask
       maskUnits="userSpaceOnUse"
       id="mask11">
      <g
         id="g11"
         transform="matrix(139.84254,0,0,139.84254,6479.7919,-17720.935)">
        <path
           d="m 5.9371641,290.97965 h -6.22743282 v 6.22772 H 5.9371641 Z"
           fill="#ffffff"
           id="path11"
           style="stroke-width:0.0071509" />
      </g>
    </mask>
    <mask
       maskUnits="userSpaceOnUse"
       id="mask12">
      <g
         id="g12"
         transform="matrix(139.84254,0,0,139.84254,6479.7919,-17720.935)">
        <path
           d="m 5.9371641,290.97965 h -6.22743282 v 6.22772 H 5.9371641 Z"
           fill="#ffffff"
           id="path12"
           style="stroke-width:0.0071509" />
      </g>
    </mask>
    <mask
       maskUnits="userSpaceOnUse"
       id="mask13">
      <g
         id="g13"
         transform="matrix(139.84254,0,0,139.84254,6479.7919,-17720.935)">
        <path
           d="m 5.9371641,290.97965 h -6.22743282 v 6.22772 H 5.9371641 Z"
           fill="#ffffff"
           id="path13"
           style="stroke-width:0.0071509" />
      </g>
    </mask>
    <mask
       maskUnits="userSpaceOnUse"
       id="mask14">
      <g
         id="g14"
         transform="matrix(139.84254,0,0,139.84254,6479.7919,-17720.935)">
        <path
           d="m 5.9371641,290.97965 h -6.22743282 v 6.22772 H 5.9371641 Z"
           fill="#ffffff"
           id="path14"
           style="stroke-width:0.0071509" />
      </g>
    </mask>
    <mask
       maskUnits="userSpaceOnUse"
       id="mask15">
      <g
         id="g15"
         transform="matrix(139.84254,0,0,139.84254,6479.7919,-17720.935)">
        <path
           d="m 5.9371641,290.97965 h -6.22743282 v 6.22772 H 5.9371641 Z"
           fill="#ffffff"
           id="path15"
           style="stroke-width:0.0071509" />
      </g>
    </mask>
    <mask
       maskUnits="userSpaceOnUse"
       id="mask16">
      <g
         id="g16"
         transform="matrix(139.84254,0,0,139.84254,6479.7919,-17720.935)">
        <path
           d="m 5.9371641,290.97965 h -6.22743282 v 6.22772 H 5.9371641 Z"
           fill="#ffffff"
           id="path16"
           style="stroke-width:0.0071509" />
      </g>
    </mask>
    <mask
       maskUnits="userSpaceOnUse"
       id="mask17">
      <g
         id="g17"
         transform="matrix(139.84254,0,0,139.84254,6479.7919,-17720.935)">
        <path
           d="m 5.9371641,290.97965 h -6.22743282 v 6.22772 H 5.9371641 Z"
           fill="#ffffff"
           id="path17"
           style="stroke-width:0.0071509" />
      </g>
    </mask>
    <mask
       maskUnits="userSpaceOnUse"
       id="mask18">
      <g
         id="g18"
         transform="matrix(139.84254,0,0,139.84254,6479.7919,-17720.935)">
        <path
           d="m 5.9371641,290.97965 h -6.22743282 v 6.22772 H 5.9371641 Z"
           fill="#ffffff"
           id="path18"
           style="stroke-width:0.0071509" />
      </g>
    </mask>
    <mask
       maskUnits="userSpaceOnUse"
       id="mask19">
      <g
         id="g19"
         transform="matrix(139.84254,0,0,139.84254,6479.7919,-17720.935)">
        <path
           d="m 5.9371641,290.97965 h -6.22743282 v 6.22772 H 5.9371641 Z"
           fill="#ffffff"
           id="path19"
           style="stroke-width:0.0071509" />
      </g>
    </mask>
    <mask
       maskUnits="userSpaceOnUse"
       id="mask20">
      <g
         id="g20"
         transform="matrix(139.84254,0,0,139.84254,6479.7919,-17720.935)">
        <path
           d="m 5.9371641,290.97965 h -6.22743282 v 6.22772 H 5.9371641 Z"
           fill="#ffffff"
           id="path20"
           style="stroke-width:0.0071509" />
      </g>
    </mask>
    <mask
       maskUnits="userSpaceOnUse"
       id="mask21">
      <g
         id="g21"
         transform="matrix(139.84254,0,0,139.84254,6479.7919,-17720.935)">
        <path
           d="m 5.9371641,290.97965 h -6.22743282 v 6.22772 H 5.9371641 Z"
           fill="#ffffff"
           id="path21"
           style="stroke-width:0.0071509" />
      </g>
    </mask>
    <mask
       maskUnits="userSpaceOnUse"
       id="mask22">
      <g
         id="g22"
         transform="matrix(139.84254,0,0,139.84254,6479.7919,-17720.935)">
        <path
           d="m 5.9371641,290.97965 h -6.22743282 v 6.22772 H 5.9371641 Z"
           fill="#ffffff"
           id="path22"
           style="stroke-width:0.0071509" />
      </g>
    </mask>
    <mask
       maskUnits="userSpaceOnUse"
       id="mask23">
      <g
         id="g23"
         transform="matrix(139.84254,0,0,139.84254,6479.7919,-17720.935)">
        <path
           d="m 5.9371641,290.97965 h -6.22743282 v 6.22772 H 5.9371641 Z"
           fill="#ffffff"
           id="path23"
           style="stroke-width:0.0071509" />
      </g>
    </mask>
    <mask
       maskUnits="userSpaceOnUse"
       id="mask24">
      <g
         id="g24"
         transform="matrix(139.84254,0,0,139.84254,6479.7919,-17720.935)">
        <path
           d="m 5.9371641,290.97965 h -6.22743282 v 6.22772 H 5.9371641 Z"
           fill="#ffffff"
           id="path24"
           style="stroke-width:0.0071509" />
      </g>
    </mask>
    <clipPath
       clipPathUnits="userSpaceOnUse"
       id="clipPath24">
      <rect
         width="870.85199"
         height="870.85199"
         fill="#ffffff"
         id="rect24"
         x="6439.2002"
         y="22970.398"
         style="stroke-width:0.999999" />
    </clipPath>
    <clipPath
       clipPathUnits="userSpaceOnUse"
       id="clipPath25">
      <rect
         width="870.85199"
         height="870.85199"
         fill="#ffffff"
         id="rect25"
         x="6439.2002"
         y="22970.398"
         style="stroke-width:0.999999" />
    </clipPath>
    <clipPath
       clipPathUnits="userSpaceOnUse"
       id="clipPath26">
      <rect
         width="870.85199"
         height="870.85199"
         fill="#ffffff"
         id="rect26"
         x="6439.2002"
         y="22970.398"
         style="stroke-width:0.999999" />
    </clipPath>
    <clipPath
       clipPathUnits="userSpaceOnUse"
       id="clipPath27">
      <rect
         width="870.85199"
         height="870.85199"
         fill="#ffffff"
         id="rect27"
         x="6439.2002"
         y="22970.398"
         style="stroke-width:0.999999" />
    </clipPath>
    <clipPath
       clipPathUnits="userSpaceOnUse"
       id="clipPath28">
      <rect
         width="870.85199"
         height="870.85199"
         fill="#ffffff"
         id="rect28"
         x="6439.2002"
         y="22970.398"
         style="stroke-width:0.999999" />
    </clipPath>
    <clipPath
       clipPathUnits="userSpaceOnUse"
       id="clipPath29">
      <rect
         width="870.85199"
         height="870.85199"
         fill="#ffffff"
         id="rect29"
         x="6439.2002"
         y="22970.398"
         style="stroke-width:0.999999" />
    </clipPath>
    <clipPath
       clipPathUnits="userSpaceOnUse"
       id="clipPath30">
      <rect
         width="870.85199"
         height="870.85199"
         fill="#ffffff"
         id="rect30"
         x="6439.2002"
         y="22970.398"
         style="stroke-width:0.999999" />
    </clipPath>
    <clipPath
       clipPathUnits="userSpaceOnUse"
       id="clipPath31">
      <rect
         width="870.85199"
         height="870.85199"
         fill="#ffffff"
         id="rect31"
         x="6439.2002"
         y="22970.398"
         style="stroke-width:0.999999" />
    </clipPath>
    <clipPath
       clipPathUnits="userSpaceOnUse"
       id="clipPath32">
      <rect
         width="870.85199"
         height="870.85199"
         fill="#ffffff"
         id="rect32"
         x="6439.2002"
         y="22970.398"
         style="stroke-width:0.999999" />
    </clipPath>
    <clipPath
       clipPathUnits="userSpaceOnUse"
       id="clipPath33">
      <rect
         width="870.85199"
         height="870.85199"
         fill="#ffffff"
         id="rect33"
         x="6439.2002"
         y="22970.398"
         style="stroke-width:0.999999" />
    </clipPath>
    <clipPath
       clipPathUnits="userSpaceOnUse"
       id="clipPath34">
      <rect
         width="870.85199"
         height="870.85199"
         fill="#ffffff"
         id="rect34"
         x="6439.2002"
         y="22970.398"
         style="stroke-width:0.999999" />
    </clipPath>
    <clipPath
       clipPathUnits="userSpaceOnUse"
       id="clipPath35">
      <rect
         width="870.85199"
         height="870.85199"
         fill="#ffffff"
         id="rect35"
         x="6439.2002"
         y="22970.398"
         style="stroke-width:0.999999" />
    </clipPath>
    <clipPath
       clipPathUnits="userSpaceOnUse"
       id="clipPath36">
      <rect
         width="870.85199"
         height="870.85199"
         fill="#ffffff"
         id="rect36"
         x="6439.2002"
         y="22970.398"
         style="stroke-width:0.999999" />
    </clipPath>
    <clipPath
       clipPathUnits="userSpaceOnUse"
       id="clipPath37">
      <rect
         width="870.85199"
         height="870.85199"
         fill="#ffffff"
         id="rect37"
         x="6439.2002"
         y="22970.398"
         style="stroke-width:0.999999" />
    </clipPath>
    <clipPath
       clipPathUnits="userSpaceOnUse"
       id="clipPath38">
      <rect
         width="870.85199"
         height="870.85199"
         fill="#ffffff"
         id="rect38"
         x="6439.2002"
         y="22970.398"
         style="stroke-width:0.999999" />
    </clipPath>
    <clipPath
       clipPathUnits="userSpaceOnUse"
       id="clipPath39">
      <rect
         width="870.85199"
         height="870.85199"
         fill="#ffffff"
         id="rect39"
         x="6439.2002"
         y="22970.398"
         style="stroke-width:0.999999" />
    </clipPath>
    <clipPath
       clipPathUnits="userSpaceOnUse"
       id="clipPath40">
      <rect
         width="870.85199"
         height="870.85199"
         fill="#ffffff"
         id="rect40"
         x="6439.2002"
         y="22970.398"
         style="stroke-width:0.999999" />
    </clipPath>
    <clipPath
       clipPathUnits="userSpaceOnUse"
       id="clipPath41">
      <rect
         width="870.85199"
         height="870.85199"
         fill="#ffffff"
         id="rect41"
         x="6439.2002"
         y="22970.398"
         style="stroke-width:0.999999" />
    </clipPath>
    <clipPath
       clipPathUnits="userSpaceOnUse"
       id="clipPath42">
      <rect
         width="870.85199"
         height="870.85199"
         fill="#ffffff"
         id="rect42"
         x="6439.2002"
         y="22970.398"
         style="stroke-width:0.999999" />
    </clipPath>
    <clipPath
       clipPathUnits="userSpaceOnUse"
       id="clipPath43">
      <rect
         width="870.85199"
         height="870.85199"
         fill="#ffffff"
         id="rect43"
         x="6439.2002"
         y="22970.398"
         style="stroke-width:0.999999" />
    </clipPath>
    <clipPath
       clipPathUnits="userSpaceOnUse"
       id="clipPath44">
      <rect
         width="870.85199"
         height="870.85199"
         fill="#ffffff"
         id="rect44"
         x="6439.2002"
         y="22970.398"
         style="stroke-width:0.999999" />
    </clipPath>
    <clipPath
       clipPathUnits="userSpaceOnUse"
       id="clipPath45">
      <rect
         width="870.85199"
         height="870.85199"
         fill="#ffffff"
         id="rect45"
         x="6439.2002"
         y="22970.398"
         style="stroke-width:0.999999" />
    </clipPath>
    <clipPath
       clipPathUnits="userSpaceOnUse"
       id="clipPath46">
      <rect
         width="870.85199"
         height="870.85199"
         fill="#ffffff"
         id="rect46"
         x="6439.2002"
         y="22970.398"
         style="stroke-width:0.999999" />
    </clipPath>
    <clipPath
       id="clip186_14_36462">
      <rect
         width="870.84998"
         height="870.84998"
         fill="#ffffff"
         transform="translate(5228.35,22970.4)"
         id="rect11354"
         x="0"
         y="0" />
    </clipPath>
    <mask
       id="mask230_14_36462"
       maskUnits="userSpaceOnUse"
       x="5228"
       y="22970"
       width="872"
       height="872">
      <path
         d="m 6099.2,22970.4 h -870.85 v 870.9 h 870.85 z"
         fill="#ffffff"
         id="path7816" />
    </mask>
    <radialGradient
       id="paint618_radial_14_36462"
       cx="0"
       cy="0"
       r="1"
       gradientUnits="userSpaceOnUse"
       gradientTransform="matrix(332.288,0,0,332.288,5561.74,23250.7)">
      <stop
         stop-color="#FE535D"
         id="stop10884" />
      <stop
         offset="0.55"
         stop-color="#E73439"
         id="stop10885" />
      <stop
         offset="1"
         stop-color="#CF1515"
         id="stop10886" />
    </radialGradient>
    <radialGradient
       id="paint619_radial_14_36462"
       cx="0"
       cy="0"
       r="1"
       gradientUnits="userSpaceOnUse"
       gradientTransform="matrix(250.22547,2.1836846,-2.1836846,250.22547,5710.49,23477.3)">
      <stop
         stop-color="#FF535D"
         id="stop10887" />
      <stop
         offset="0.55"
         stop-color="#E73439"
         id="stop10888" />
      <stop
         offset="1"
         stop-color="#CF1515"
         id="stop10889" />
    </radialGradient>
  </defs>
  <metadata
     id="metadata7" />
  <g
     inkscape:label="Capa 1"
     inkscape:groupmode="layer"
     id="layer1"
     transform="matrix(1 0 0 1 0 -291.17916)">
    <g
       id="g1"
       transform="translate(0.0785667)">
      <path
         d="m 7208.78,23405.3 c 0,183.9 -149.08,333 -332.97,333 -183.9,0 -332.98,-149.1 -332.98,-333 0,-183.9 149.08,-333 332.98,-333 183.89,0 332.97,149.1 332.97,333 z"
         fill="url(#paint480_linear_14_36462)"
         id="path3401"
         style="fill:url(#paint480_linear_14_36462)"
         transform="matrix(0.0071509,0,0,0.0071509,-46.336344,126.72062)"
         mask="url(#mask24)"
         clip-path="url(#clipPath46)" />
      <path
         d="m 7172.7,23406.6 c -2.57,167.5 -137.53,301.3 -301.45,298.8 -163.91,-2.6 -294.71,-140.4 -292.14,-307.9 2.57,-167.6 137.53,-301.3 301.44,-298.8 163.92,2.5 294.72,140.3 292.15,307.9 z"
         fill="url(#paint481_radial_14_36462)"
         id="path3402"
         style="fill:url(#paint481_radial_14_36462)"
         transform="matrix(0.0071509,0,0,0.0071509,-46.336344,126.72062)"
         mask="url(#mask23)"
         clip-path="url(#clipPath45)" />
      <path
         d="m 7041.93,23394 c -17.82,-16.3 -53.75,-30.1 -90.23,-23.3 -44.92,8.4 -39.99,46.5 -20.76,52.2 21.34,6.3 40.55,-14.5 86.43,3 34.28,13 42.92,-15.1 24.56,-31.9 z"
         fill="#ffe2a6"
         id="path3405"
         transform="matrix(0.0071509,0,0,0.0071509,-46.336344,126.72062)"
         mask="url(#mask21)"
         clip-path="url(#clipPath43)" />
      <path
         d="m 7039.73,23390.1 c -17.9,-15.4 -49.79,-26.5 -86.23,-20.3 -44.87,7.6 -38.77,38.9 -22.5,43.5 21.36,6 40.47,-13.3 86.41,3.2 34.32,12.4 40.74,-10.6 22.32,-26.4 z"
         fill="#974800"
         id="path3406"
         transform="matrix(0.0071509,0,0,0.0071509,-46.336344,126.72062)"
         mask="url(#mask20)"
         clip-path="url(#clipPath42)" />
      <path
         d="m 7048.72,23413.2 c -1.5,-4.1 -4.51,-8.4 -8.98,-12.2 -17.9,-15.4 -49.8,-26.6 -86.24,-20.4 -21.2,3.6 -31.02,12.6 -33.75,21.4 -3.56,-11.2 3.54,-27.1 33.75,-32.2 36.44,-6.2 68.34,4.9 86.24,20.3 8.87,7.6 11.99,16.9 8.98,23.1 z"
         fill="#632900"
         id="path3407"
         transform="matrix(0.0071509,0,0,0.0071509,-46.336344,126.72062)"
         mask="url(#mask19)"
         clip-path="url(#clipPath41)" />
      <path
         d="m 6818.41,23390.4 c 0,30.3 -17.29,54.9 -38.62,54.9 -21.34,0 -38.63,-24.6 -38.63,-54.9 0,-30.3 17.29,-54.9 38.63,-54.9 21.33,0 38.62,24.6 38.62,54.9 z"
         fill="#ffe2a6"
         id="path3408"
         transform="matrix(0.0071509,0,0,0.0071509,-46.336344,126.72062)"
         mask="url(#mask18)"
         clip-path="url(#clipPath40)" />
      <path
         d="m 6816,23379.8 c 0,30.3 -16.22,54.9 -36.22,54.9 -20,0 -36.21,-24.6 -36.21,-54.9 0,-30.3 16.21,-54.9 36.21,-54.9 20,0 36.22,24.6 36.22,54.9 z"
         fill="#974800"
         id="path3409"
         transform="matrix(0.0071509,0,0,0.0071509,-46.336344,126.72062)"
         mask="url(#mask17)"
         clip-path="url(#clipPath39)" />
      <path
         d="m 6816,23379.8 c 0,2.4 -0.1,4.8 -0.32,7.1 -2.27,-27 -17.48,-47.8 -35.89,-47.8 -18.41,0 -33.62,20.8 -35.89,47.8 -0.22,-2.3 -0.32,-4.7 -0.32,-7.1 0,-30.3 16.21,-54.9 36.21,-54.9 20,0 36.21,24.6 36.21,54.9 z"
         fill="#632900"
         id="path3410"
         transform="matrix(0.0071509,0,0,0.0071509,-46.336344,126.72062)"
         mask="url(#mask16)"
         clip-path="url(#clipPath38)" />
      <path
         d="m 6949.51,23303.9 c 1.63,-2.8 7.75,-6.8 12.78,-9.3 21.78,-10.7 69.31,-9.1 106.29,11.1 52.67,28.8 42.79,53.1 31.36,47.4 -11.43,-5.6 -51.77,-31.9 -107.15,-30.3 -14.84,0.4 -25.28,2.4 -33.52,1.9 -10.88,-0.6 -14.26,-13.3 -9.76,-20.8 z"
         fill="#ffeebd"
         id="path3417"
         transform="matrix(0.0071509,0,0,0.0071509,-46.336344,126.72062)"
         mask="url(#mask9)"
         clip-path="url(#clipPath31)" />
      <path
         d="m 6950.24,23302.5 c 1.64,-2.7 7.02,-7.2 12.04,-9.7 21.79,-10.6 63.43,-15.7 100.41,4.5 52.67,28.8 48.5,53.1 37.06,47.5 -11.43,-5.6 -51.76,-31.9 -107.14,-30.3 -14.84,0.4 -25.29,2.3 -33.53,1.8 -10.88,-0.6 -13.33,-6.2 -8.84,-13.8 z"
         fill="#974800"
         id="path3418"
         transform="matrix(0.0071509,0,0,0.0071509,-46.336344,126.72062)"
         mask="url(#mask8)"
         clip-path="url(#clipPath30)" />
      <path
         d="m 6950.17,23313.5 c 0.01,0 0.05,-0.1 0.08,-0.1 1.64,-2.8 7.01,-7.2 12.05,-9.7 21.77,-10.7 63.42,-15.7 100.39,4.5 26.36,14.4 38.47,27.7 42.57,36.7 5.39,-4.1 -0.19,-24.4 -42.57,-47.6 -36.97,-20.1 -78.62,-15.1 -100.39,-4.5 -5.04,2.5 -10.41,7 -12.05,9.7 -2.76,4.6 -2.9,8.6 -0.08,11 z"
         fill="#632900"
         id="path3419"
         transform="matrix(0.0071509,0,0,0.0071509,-46.336344,126.72062)"
         mask="url(#mask7)"
         clip-path="url(#clipPath29)" />
      <path
         d="m 6775.29,23214 c -2.78,-1.5 -10.1,-2 -15.69,-1.7 -24.22,1.5 -64.75,26.3 -86.92,62.2 -31.56,51 -10.96,67.3 -3.8,56.8 7.16,-10.6 29.21,-53.4 78.15,-79.4 13.12,-6.9 23.16,-10.4 30.08,-14.9 9.14,-5.9 5.82,-18.6 -1.82,-23 z"
         fill="#ffeebd"
         id="path3420"
         transform="matrix(0.0071509,0,0,0.0071509,-46.336344,126.72062)"
         mask="url(#mask6)"
         clip-path="url(#clipPath28)" />
      <path
         d="m 6773.98,23213.2 c -2.78,-1.6 -9.66,-2.8 -15.24,-2.4 -24.22,1.5 -62.9,17.7 -85.06,53.5 -31.57,51.1 -15.93,70.1 -8.77,59.6 7.17,-10.5 29.21,-53.4 78.15,-79.3 13.12,-7 23.16,-10.5 30.08,-15 9.14,-5.9 8.48,-12 0.84,-16.4 z"
         fill="#974800"
         id="path3421"
         transform="matrix(0.0071509,0,0,0.0071509,-46.336344,126.72062)"
         mask="url(#mask5)"
         clip-path="url(#clipPath27)" />
      <path
         d="m 6779.51,23222.8 c -0.04,-0.1 -0.11,-0.1 -0.16,-0.1 -2.79,-1.6 -9.66,-2.8 -15.24,-2.5 -24.21,1.5 -62.9,17.7 -85.06,53.6 -15.79,25.5 -19.75,43.1 -18.88,52.9 -6.71,-0.9 -11.88,-21.3 13.52,-62.4 22.15,-35.8 60.84,-52 85.04,-53.5 5.6,-0.4 12.46,0.9 15.25,2.4 4.69,2.7 6.75,6 5.53,9.6 z"
         fill="#632900"
         id="path3422"
         transform="matrix(0.0071509,0,0,0.0071509,-46.336344,126.72062)"
         mask="url(#mask4)"
         clip-path="url(#clipPath26)" />
      <g
         clip-path="url(#clip186_14_36462)"
         id="g7871"
         transform="matrix(0.00166757,0.00105833,-0.00105833,0.00166757,18.167562,250.06923)">
        <mask
           id="mask1-1"
           maskUnits="userSpaceOnUse"
           x="5228"
           y="22970"
           width="872"
           height="872">
          <path
             d="m 6099.2,22970.4 h -870.85 v 870.9 h 870.85 z"
             fill="#ffffff"
             id="path1-1" />
        </mask>
        <g
           mask="url(#mask230_14_36462)"
           id="g7870">
          <path
             d="m 5977.02,23208.6 -0.17,-14.1 -0.05,-4 v 0 h -0.01 l -28.78,14.1 c -20.82,0.6 -34.35,-14.2 -61.15,-22.6 -29.92,-9.5 -29.14,0.5 -28.88,11.3 0.28,10.7 -12.58,-7.4 -28.85,-26 -16.27,-18.7 -13.4,-4 -20.47,0 -7.09,3.9 -20.74,-1.3 -27.29,-0.8 -6.57,0.5 -2.37,25.5 -11.82,1.3 -9.44,-24.1 -29.65,-37 -30.43,-27 -0.8,10 -9.45,16.3 -22.84,3.1 -13.38,-13.1 -64.03,-25.4 -69.54,-8.4 -5.52,17.1 -24.15,14.5 -37.78,22.3 -0.07,0.1 -0.11,0.1 -0.16,0.1 l -7.7,-3.7 v 0.1 l -0.06,7 c 0.52,7.2 2.44,14.4 2.93,19.3 0.33,3.3 -0.4,5.2 -1.81,6.1 0.61,3.5 1.28,6.8 1.65,9.5 l -10.22,7.2 c -2.04,-0.5 -4.15,-1.2 -6.16,-1.7 -4.82,-1.3 -6.79,1.9 -9.58,6.6 l -10.9,1.3 c 0.11,5.4 3.57,10.6 1.27,15.6 -0.38,0.9 -0.79,1.5 -1.24,1.8 0.11,1.8 0.57,3.6 1.01,5.4 l -6.96,8.9 c -2.85,-2.9 -6.23,-7.3 -10.08,-9.7 -7.83,-5 -11.25,-0.1 -8.68,8.5 l -12.12,-2.1 c -3.49,-2.3 -7.03,-4.9 -9.63,-7 -7.88,-6 -22.84,-9.9 -46.72,6.1 -17.23,11.6 -28.15,22 -34.29,33 l -5.69,0.5 h -0.02 v 2.4 c 0.61,11.5 10.44,18.4 18.22,29.9 6.23,9.3 0.15,9.7 -7.85,6.7 2.28,2.8 4.68,5.6 6.96,8.9 l -9.24,7.1 c -3.16,-1.4 -6.43,-3.2 -9.28,-5.1 -11.02,-7.3 -15.49,0 -15.49,12.9 0,3 -0.45,5.2 -1.15,6.9 l -7.76,1.2 v 3.8 c 0.63,13.8 7.85,29.4 4.97,39.5 -0.14,0.5 -0.32,1 -0.55,1.4 1.17,5.8 1.79,11.1 0.55,15.4 -3.14,11 -22.56,4.2 -21.5,15.8 0.13,1.5 0.13,3 0.04,4.5 l -2.56,0.7 v 0.5 c 0,0 0,0 0,0 0.13,1.8 0.62,3.5 1.72,5 4.73,6.3 45.14,41.2 36.22,43.8 -2.6,0.8 -6.06,0.4 -10,-0.5 2.04,2.1 3.92,4.2 5.56,6.2 l 0.63,2.2 -27.48,-10.5 -20.12,-4.9 v 0.5 c 0.17,3.8 4.38,8.9 11.78,11.7 13.91,5.3 57.2,39.1 50.91,40.7 -6.29,1.6 -12.34,-10.5 -24.14,-10.2 -1.49,0 -3.22,-0.2 -5.11,-0.5 1.96,1.4 3.93,2.9 5.89,4.4 l 0.08,0.7 -45.32,-5.9 h -0.01 v 0.1 c 0,0 0,0 0,0 v 3.3 c 1.36,7.3 10.61,13.7 6.15,19.4 -1.67,2.1 -2.32,3.9 -2.2,5.6 0.24,4 4.58,7.5 10.07,14.1 5.14,6.1 -1.12,7.6 -6.09,9.9 1.68,1.9 3.78,4.1 6.09,6.9 7.89,9.5 -11.02,7.9 -11.02,15 0,7.1 -11.8,-2.4 -15,7.3 -2.02,6.1 -5.05,11.4 -8.1,16.1 l -10.55,2 c 0,0 0,0 0,0 v 15.6 l 0.5,-6.8 c -0.35,2.8 2.49,7.9 7.92,9.4 18.11,5 32.41,-14 68.09,-27.4 35.7,-13.4 77.82,-45.5 104.51,-71.3 30.74,-29.7 51.02,-70 58.37,-87.4 7.35,-17.3 13.12,-19.7 55.64,-26.2 42.51,-6.6 73.2,-28.1 86.34,-53.9 13.12,-25.7 25.18,-36.8 52.99,-38.9 12.62,-0.9 28.16,-2.6 44.4,-8.1 12.38,-4.2 25.7,-9.1 41.05,-15.2 l 40.31,-14.7 c 3.11,-1.5 5.74,-4.2 8.68,-5.8 36.83,-20.1 61.93,-46.5 65.79,-56.1 1.99,-5 3.54,-6.8 3.29,-10.1 z"
             fill="#a80919"
             id="path7817" />
          <path
             d="m 5377.7,23558.2 c -2.39,-2.8 -3.92,-5 -3.98,-7.4 h -0.02 l 0.02,-16.6 c 0.24,4 4.58,7.5 10.07,14.1 5.14,6.1 -1.12,7.6 -6.09,9.9 z"
             fill="#a80919"
             id="path7818" />
          <path
             d="m 5375.92,23528.6 c -1.66,2.1 -2.32,3.9 -2.2,5.6 -1.99,-3.1 -4.12,-6.4 -4.12,-9.9 0,-0.5 0.05,-1.1 0.17,-1.6 v -13.5 c 1.36,7.3 10.61,13.7 6.15,19.4 z"
             fill="#a80919"
             id="path7819" />
          <path
             d="m 5438.38,23517.3 c -6.29,1.6 -12.34,-10.5 -24.14,-10.2 -1.49,0 -3.22,-0.2 -5.11,-0.5 -8.56,-6.1 -16.86,-11.3 -21.66,-13.1 -3.77,-1.5 -6.71,-3.5 -8.7,-5.6 -2.01,-2.2 -3.06,-4.5 -3.08,-6.3 v -16.7 c 0.17,3.8 4.38,8.9 11.78,11.7 13.91,5.3 57.2,39.1 50.91,40.7 z"
             fill="#a80919"
             id="path7820" />
          <path
             d="m 5427.1,23471.9 c -2.6,0.8 -6.06,0.4 -10,-0.5 -10.05,-10.7 -23.6,-23 -26.22,-26.5 -0.98,-1.3 -1.45,-2.7 -1.62,-4.3 h -0.02 v -0.2 c -0.09,-0.9 -0.09,-1.8 -0.01,-2.8 l -0.06,-14.5 c 0.12,1.8 0.61,3.5 1.71,5 4.73,6.3 45.14,41.2 36.22,43.8 z"
             fill="#a80919"
             id="path7821" />
          <path
             d="m 5444.17,23309.6 c -5.61,-6.7 -10.41,-12.5 -10.41,-20.9 0,-0.5 0.01,-0.9 0.04,-1.4 v -14.3 c 0.62,11.5 10.44,18.4 18.22,29.9 6.23,9.3 0.15,9.7 -7.85,6.7 z"
             fill="#a80919"
             id="path7822" />
          <path
             d="m 5413.18,23384.8 c -0.13,0.5 -0.32,1 -0.55,1.4 -1.8,-8.9 -4.91,-18.9 -4.42,-27.9 v -13 c 0.63,13.8 7.85,29.4 4.97,39.5 z"
             fill="#a80919"
             id="path7823" />
          <path
             d="m 5602.16,23186.7 c -0.67,-3.9 -1.26,-8 -1.26,-11.9 0,-0.3 0.02,-0.6 0.02,-0.9 l 0.12,-12.6 c 0.52,7.2 2.44,14.4 2.93,19.3 0.33,3.3 -0.4,5.2 -1.81,6.1 z"
             fill="#a80919"
             id="path7824" />
          <path
             d="m 5568.22,23225.2 c -0.38,0.9 -0.79,1.5 -1.24,1.8 -0.06,-0.8 -0.06,-1.6 0.06,-2.5 l -0.1,-14.9 h 0.01 c 0.11,5.4 3.57,10.6 1.27,15.6 z"
             fill="#a80919"
             id="path7825" />
          <path
             d="m 5976.85,23194.5 c -0.41,2.9 -1.65,6.3 -3.14,10 -4.62,11.6 -37,47.2 -87.38,67.2 -50.39,19.9 -85.02,34.9 -112.85,37 -27.81,2.1 -39.87,6.3 -52.99,32 -13.14,25.7 -43.83,53 -86.34,59.6 -42.52,6.5 -53.27,5.5 -60.62,22.8 -7.35,17.3 -27.03,59.3 -53.01,85.8 -25.98,26.5 -66.13,60.6 -101.83,74 -35.68,13.4 -54.57,32.8 -72.68,27.8 -4.56,-1.2 -6.57,-2.9 -6.89,-5.2 0,0 0,0 0,0 -0.9,-6.6 12.94,-17.7 18.65,-34.9 3.2,-9.7 15,-0.3 15,-7.4 0,-2.4 2.28,-3.8 4.93,-5 4.97,-2.3 11.23,-3.8 6.09,-9.9 -5.49,-6.6 -9.83,-10.1 -10.07,-14.1 -0.12,-1.7 0.53,-3.5 2.2,-5.6 4.46,-5.7 -4.79,-12.1 -6.15,-19.4 -0.22,-1 -0.25,-2.1 0,-3.3 0,0 0,0 0,0 0,0 0,0 0.01,-0.1 0.13,-0.6 0.33,-1.2 0.63,-1.9 3.91,-8.2 25.47,0.6 38.72,2.7 1.89,0.3 3.62,0.5 5.11,0.5 11.8,-0.3 17.85,11.8 24.14,10.2 6.29,-1.6 -37,-35.4 -50.92,-40.7 -7.39,-2.8 -11.6,-7.9 -11.77,-11.7 v -0.5 c 0.14,-3 3.11,-4.9 9.42,-3.5 10.04,2.2 22.44,8.1 31.99,10.5 3.93,0.9 7.39,1.3 10,0.5 8.92,-2.6 -31.49,-37.5 -36.22,-43.8 -1.1,-1.5 -1.59,-3.2 -1.72,-5 0,0 0,0 0,0 -0.32,-6 3.31,-13.7 2.51,-22.6 -1.01,-11 16.63,-5.3 20.96,-14.3 0.23,-0.4 0.41,-0.9 0.55,-1.4 2.88,-10.1 -4.35,-25.7 -4.97,-39.5 -0.06,-1.3 -0.06,-2.5 0,-3.8 0.78,-14.7 8.91,-12.1 8.91,-24.9 0,-12.9 4.47,-20.2 15.49,-12.9 3.55,2.4 7.76,4.5 11.56,5.9 8,3 14.08,2.6 7.85,-6.7 -7.78,-11.5 -17.61,-18.4 -18.22,-29.9 v -2.1 c 0,-0.1 0,-0.2 0.02,-0.3 0.06,-1.4 0.27,-2.9 0.62,-4.4 3.68,-16 15.48,-29.9 39.36,-45.9 23.88,-16.1 38.84,-12.1 46.72,-6.1 7.87,6.1 24.4,17.9 21.78,9.2 -2.63,-8.7 0.78,-13.6 8.65,-8.7 7.01,4.5 12.46,15.3 16.03,12.3 0.44,-0.3 0.86,-0.9 1.24,-1.8 2.3,-5 -1.16,-10.2 -1.27,-15.6 -0.08,-2.8 0.75,-5.6 3.69,-8.5 8.66,-8.4 8.92,-18.4 16.79,-16.3 5.39,1.5 11.67,3.9 14.73,1.9 1.41,-0.9 2.14,-2.8 1.8,-6.1 -0.49,-4.9 -2.4,-12.1 -2.92,-19.3 -0.17,-2.3 -0.18,-4.7 0.06,-7 v -0.1 c 0.31,-2.7 0.98,-5.2 2.24,-7.5 1.24,-2.3 3.06,-4.2 5.61,-5.7 13.64,-7.9 32.27,-5.2 37.78,-22.3 5.52,-17.1 56.17,-4.7 69.55,8.4 13.39,13.1 22.04,6.8 22.84,-3.2 0.78,-9.9 20.99,2.9 30.43,27.1 9.45,24.1 5.25,-0.8 11.82,-1.3 6.55,-0.6 20.2,4.7 27.29,0.8 7.07,-4 4.2,-18.7 20.47,0 16.27,18.6 29.13,36.7 28.85,25.9 -0.26,-10.7 -1.04,-20.7 28.87,-11.3 29.92,9.5 43.31,26.8 68.77,21.8 14.49,-2.8 20.05,-1 21.17,3.6 0.01,0 0.01,0 0.01,0 0.28,1.2 0.28,2.5 0.05,4 z"
             fill="url(#paint618_radial_14_36462)"
             id="path7826"
             style="fill:url(#paint618_radial_14_36462)" />
          <path
             d="m 5877.48,23322.8 c -17.63,7.1 -34.82,15 -47.75,22.2 l -22.15,1.2 c 0.04,0.9 0.6,1.7 1.77,2.3 18.83,9.2 50.01,44.9 57.78,55.5 7.78,10.7 37.78,46.4 29.93,44 -7.85,-2.4 -38.23,-38.2 -40.55,-44.1 -3.34,-8.5 0.1,-11.7 -10.5,-16.2 -10.59,-4.4 -22.28,-17.1 -30.53,-18.7 1.31,0.9 2.65,1.8 4.02,2.9 l 0.15,0.4 -8.39,-0.6 -0.01,1.3 c 0.64,4.4 5.4,11.3 13.9,16.1 14.09,8 31.94,38.1 24.1,34.5 -7.84,-3.6 -14.77,-21.8 -23.82,-22.7 -3.92,-0.4 -7.22,-1.4 -10.16,-3 0.46,0.6 0.96,1.2 1.5,1.7 l -5.71,9.5 -23.09,-15.3 -7.51,-2.3 -0.01,0.3 c -0.04,5 1.61,10.4 6.78,11.5 9.03,2 16.02,12.8 8.17,10.8 -7.85,-2.1 -15.34,-1.3 -8.31,4.6 7.04,6 28.39,39.2 16.68,29.7 -4.93,-4 -11.48,-11.2 -17.8,-18.3 h -0.02 -0.03 c -0.75,0.2 -1.3,0.5 -1.57,1 l -2.03,1.2 -18.13,-13.3 -6.09,-5.5 c -0.02,0 0,0.1 0,0.2 0.09,1.7 0.98,3.6 3.01,5.6 7.03,6.7 20.59,31.3 13.59,27.3 -3.86,-2.3 -10.36,-11.6 -16.47,-18.1 l -2.91,7.1 -31.02,6.2 c -0.05,5.1 35.38,49.9 25.6,44.7 -7.88,-4.2 -18.46,-19.9 -18.5,-15.2 0.03,0.1 0.08,0.2 0.12,0.2 l 0.01,1 c 0.25,1.4 0.86,3.4 1.9,6.4 7.29,20.5 22.87,40.3 16.61,34.8 -6.24,-5.6 -13.72,-5.7 -8.25,-0.9 5.47,4.8 24.48,35.6 29.53,44.7 5.04,9.1 1.78,21.3 -8.28,1.9 -5.5,-10.5 -14.03,-23.3 -21.89,-33.2 -0.86,0 -1.38,0.3 -1.39,0.8 0,0.3 0.18,0.8 0.56,1.3 l -3.74,9.4 c -4.75,-5.6 -8.94,-9.6 -11.59,-10.8 -7.59,-3.5 -6.1,-6.1 -7.6,-15.2 -1.49,-9.1 -19.41,-31.3 -27.59,-34.5 -8.17,-3.2 -7.54,1.1 -6.82,7.8 0.74,6.7 -0.05,5.9 -5.11,0.4 -5.07,-5.6 -23.57,-6.1 -27.54,-2.2 -0.52,0.5 -0.85,1.2 -1.06,2 l -1.62,-0.3 -13.46,-9.9 -0.01,-0.1 -0.01,0.2 0.01,0.6 c 0.52,6 14.14,15.5 14.4,27.2 0.29,12.6 17.04,31.3 22.8,36 5.38,4.5 23.33,61.8 15.4,60.4 0.85,3.9 1.46,7.4 1.72,10.2 l -8.79,-0.1 c -9.78,-13 -24.88,-41.3 -36.19,-63 l 0.47,-0.9 -1.65,-1.3 c -5.04,-9.7 -9.21,-17.8 -11.64,-22.2 -1.19,-2.2 -2.45,-4.3 -3.77,-6.2 l -12.6,-24.1 -5.75,-6.4 c -0.06,7 17.45,30.4 6.89,22.5 -2.64,-2 -4.89,-4.4 -6.87,-6.8 -0.11,0.3 -0.16,0.7 -0.17,1.1 0,0.8 0.22,1.8 0.58,2.9 l -10.75,-9.2 -5.68,-1.5 h -0.01 l -0.01,0.3 c -0.03,9.3 15.03,30.4 22.68,39.5 7.43,8.9 12.24,38 6.85,33.1 0.78,3 1.37,5.9 1.73,8.5 l -8.89,-4.3 c -2.9,-5.8 -5.57,-10.4 -7.91,-13.9 l -5.11,-18.5 -4.09,-6.2 -0.01,1.3 c 0.03,0.2 0.07,0.4 0.11,0.7 1.5,7.1 9.91,36.7 3.73,23.6 -1.11,-2.3 -2.48,-5.2 -4.03,-8.4 -0.01,0 -0.01,0.1 -0.01,0.2 -0.01,0.3 0.01,0.5 0.06,0.9 l -0.02,3 -5.63,1.6 c -6.52,-12.9 -14.13,-26.8 -18.81,-31.1 -7.42,-6.7 -27.37,23 -44.08,42.9 -4.39,5.3 -8.9,9.3 -13.35,12.5 l -23.33,7.7 -10.61,13.6 c -3.92,4.1 -8.97,10.5 -13.51,17.3 l -3.35,4.3 -8.09,3.2 -0.01,0.2 -0.06,15.8 c -0.08,0.7 -0.09,1.3 -0.01,1.9 l -0.01,0.2 h 0.04 c 0.27,1.7 1.35,2.7 3.51,2.6 12.6,-0.2 18.88,1.4 36.47,14.9 17.59,13.6 30.29,2.7 38.9,12.4 7.31,8.2 12.86,10 13.22,7.5 l 0.02,0.1 0.04,-5.4 c 1.06,0.4 2.89,2 5.51,5.2 4.76,5.8 11.41,5.1 11.7,2.1 l 0.08,-12.9 c 1.48,1.7 3.04,3.7 4.63,6.1 7.21,11 14.26,10.1 22.95,6.3 7.72,-3.5 21.55,3.1 21.88,-5.1 v -0.1 c 0,-0.2 0.02,-0.3 0,-0.5 l 0.04,-15.3 -33,-26.4 c -5.14,-7.7 -12.75,-29.4 -7.96,-33.5 0.22,-0.2 0.45,-0.4 0.66,-0.5 5.19,-3.3 9.37,7.8 13.79,20.2 0.54,1.5 1.29,3.1 2.25,4.7 4.27,7.3 12.32,15.3 19.8,22.3 5.04,4.7 9.83,8.9 13.05,12 12.32,12 24.56,27 36.33,30.6 11.56,3.6 69.83,-5.7 69.84,-11.6 v -0.1 c 0,0 0,0 0,0 l 0.09,-16 c 0.12,0.2 0.24,0.3 0.38,0.4 8.19,6.5 33.45,3.7 33.79,0.7 l 0.1,-9.6 c 0.69,0.7 1.35,1.4 1.99,2.1 4.31,4.7 14.03,4.9 13.78,1.5 l 0.13,-16.4 v -0.1 l -5.13,-5.3 0.7,-1.5 c 0.38,0.5 0.76,1 1.14,1.5 0.03,0 0.06,0.1 0.07,0.1 0.47,0.6 0.93,1.2 1.38,1.9 0.61,0.8 1.21,1.7 1.8,2.6 2.78,4.3 5.42,8.9 7.43,11.9 4.01,6.2 14.85,6.8 15.22,2.3 l 0.01,-0.4 0.08,-11.5 c 4.05,3.2 8.14,5.9 11.91,2 6.61,-6.9 29.55,-26.4 29.48,-36.1 l -0.04,-15.2 v 0 l -10.48,-6.1 c -0.48,-0.8 -0.96,-1.6 -1.4,-2.4 l 5.73,-2.7 c 2.15,2.9 4.33,6.4 6.35,9.8 0.38,0.6 0.75,1.2 1.12,1.8 4.28,7.1 12.03,7 12.59,3.7 h 0.02 v -0.1 c 0.02,-0.1 0.02,-0.3 0,-0.5 l -0.03,-12 c 0.36,0.4 0.79,0.9 1.26,1.5 5.05,7.2 14.19,-2.2 17.77,-6.9 1.72,-2.2 4.41,-5.5 4.82,-10.1 v 0 c 0.07,-0.6 0.07,-1.3 0.03,-1.9 l 0.17,-15.5 c 0,0 0.01,0 0,0 l -9.74,-0.5 c -0.54,-0.5 -1.1,-1 -1.71,-1.6 -1.04,-0.9 -2.05,-1.8 -3.04,-2.8 l 3.13,-8.1 4.88,1.3 c 1.34,0.9 2.52,1.6 3.54,2.1 2.43,1.2 3.85,1.2 3.59,-0.2 l 0.04,-13.7 c 1.88,2.4 3.72,5.2 5.29,7.8 4.27,7.1 13.28,12.7 14.52,6.4 1.06,-5.3 -3.08,-10.8 -2.11,-14.1 0.16,-0.6 0.45,-1.1 0.96,-1.6 0.37,-0.3 0.77,-0.5 1.17,-0.6 3.34,-0.8 7.71,5.9 12.26,6.6 4.16,0.7 24.66,-24 24.64,-40.5 l 0.1,-15.7 0.02,-2.2 -7.87,4.1 c -1.06,-1.2 -2.14,-2.3 -3.22,-3.5 l -22.45,-34.3 -0.19,-9 c 1.62,1.4 3.25,2.9 4.86,4.3 17.23,15.2 33.03,27.3 36.22,26.2 2.44,-0.8 4.62,-8 5.14,-15.6 h 0.02 v 0 c 0.12,-1.9 0.15,-3.7 0.06,-5.4 l 0.16,-12.8 c 0.02,-0.3 0.02,-0.6 0.02,-0.8 l 0.01,-1.6 -6.64,1.7 c -1.02,-0.9 -2.14,-2 -3.28,-3.2 l 0.97,-9 c 3.53,4.3 6.58,8.6 8.93,9.4 0.93,0.4 1.73,0.2 2.43,-0.8 3.98,-5.5 4.98,-74.3 5.47,-86.5 0.31,-7.3 8.48,-16.2 8.73,-23.6 l 0.17,-17.1 c 0,0 0,0 0,0 v -0.8 h -0.03 l -11.94,6.8 c -1.04,-0.3 -2.1,-0.6 -3.31,-0.8 -6.16,-1.4 -16.92,0.1 -29.9,3.4 z"
             fill="#a80919"
             id="path7827" />
          <path
             d="m 5734.15,23475.4 c 2.35,3.5 4.84,7.1 7.2,10.5 l 0.26,2.8 z"
             fill="#a80919"
             id="path7828" />
          <path
             d="m 5615.33,23524.6 c -3.65,-2.8 -6.55,-6.3 -9.04,-9.4 l 1.05,0.4 11.17,9.1 c 0.6,1.9 -0.08,2.2 -3.18,-0.1 z"
             fill="#a80919"
             id="path7829" />
          <path
             d="m 5897.06,23448 c -7.85,-2.4 -38.23,-38.2 -40.55,-44.1 -3.34,-8.5 0.1,-11.7 -10.5,-16.2 -10.58,-4.4 -22.28,-17.1 -30.53,-18.7 h -0.01 c -2.21,-1.5 -4.3,-2.8 -6.26,-3.7 -1.22,-0.6 -1.78,-1.4 -1.77,-2.4 h -0.02 l 0.15,-16.7 h 0.01 c 0.04,0.9 0.6,1.7 1.77,2.3 18.83,9.2 50.01,44.9 57.78,55.5 7.78,10.7 37.78,46.4 29.93,44 z"
             fill="#a80919"
             id="path7830" />
          <path
             d="m 5849.25,23423.6 c -7.84,-3.6 -14.77,-21.8 -23.82,-22.7 -3.92,-0.4 -7.22,-1.4 -10.16,-3 -3.21,-3.9 -4.64,-7.7 -4.15,-10 l 0.13,-14.9 c 0.64,4.4 5.4,11.3 13.9,16.1 14.09,8 31.94,38.1 24.1,34.5 z"
             fill="#a80919"
             id="path7831" />
          <path
             d="m 5803.77,23448.4 c -4.93,-4 -11.48,-11.2 -17.8,-18.3 l -1.16,-10.9 c -3.14,-1.9 -4.36,-5.8 -4.48,-9.7 h -0.01 l 0.01,-1.2 0.13,-16.5 c -0.05,5 1.6,10.4 6.77,11.5 9.03,2 16.02,12.8 8.17,10.8 -7.85,-2.1 -15.34,-1.3 -8.31,4.6 7.04,6 28.4,39.2 16.68,29.7 z"
             fill="#a80919"
             id="path7832" />
          <path
             d="m 5774.7,23446.6 c -3.86,-2.3 -10.36,-11.6 -16.47,-18.1 0,0 0,0 0,-0.1 l -0.13,-14.7 c 0.09,1.7 0.98,3.6 3.01,5.6 7.03,6.7 20.59,31.3 13.59,27.3 z"
             fill="#a80919"
             id="path7833" />
          <path
             d="m 5749.9,23486.5 c -7.88,-4.2 -18.46,-19.9 -18.5,-15.2 -4.14,-6.1 -7.26,-11.1 -7.25,-12.7 l 0.15,-16.8 c -0.05,5.1 35.38,49.9 25.6,44.7 z"
             fill="#a80919"
             id="path7834" />
          <path
             d="m 5763.04,23559.4 c -5.49,-10.5 -14.03,-23.3 -21.89,-33.2 0,0 0,0 0,0 l -1.18,-15.4 c -2.44,-4.7 -4.83,-9.9 -6.68,-15.1 -2.11,-5.9 -2.44,-8.2 -1.63,-8.4 v 0 l -0.13,-14.8 c 0.25,1.4 0.86,3.4 1.9,6.4 7.29,20.5 22.87,40.3 16.62,34.8 -6.25,-5.6 -13.73,-5.7 -8.26,-0.9 5.47,4.8 24.49,35.6 29.53,44.7 5.04,9.1 1.78,21.3 -8.28,1.9 z"
             fill="#a80919"
             id="path7835" />
          <path
             d="m 5686.78,23599.3 c -3.74,-16.9 -12.14,-40.7 -15.54,-43.5 -5.76,-4.8 -22.52,-23.4 -22.8,-36 -0.29,-12.6 -15.94,-22.6 -14.31,-28.5 0.06,-0.2 0.14,-0.4 0.23,-0.6 l -0.18,-15 c 0.52,6 14.14,15.5 14.4,27.2 0.29,12.6 17.04,31.3 22.8,36 5.38,4.5 23.33,61.8 15.4,60.4 z"
             fill="#a80919"
             id="path7836" />
          <path
             d="m 5615.47,23507.8 c -2.64,-2 -4.89,-4.4 -6.87,-6.8 0.06,-0.2 0.15,-0.4 0.28,-0.6 l -0.3,-15.1 c -0.06,7 17.45,30.4 6.89,22.5 z"
             fill="#a80919"
             id="path7837" />
          <path
             d="m 5622.09,23567.2 c -1.63,-6.3 -4.11,-12.8 -6.99,-16.2 -2.37,-2.8 -5.42,-6.8 -8.52,-11.2 -0.2,-0.2 -0.38,-0.5 -0.55,-0.8 -6.82,-9.7 -13.67,-21.3 -13.61,-27.6 0,-0.5 0.04,-0.9 0.13,-1.3 l 0.01,-15.5 c -0.03,9.3 15.03,30.4 22.68,39.5 7.43,8.9 12.24,38 6.85,33.1 z"
             fill="#a80919"
             id="path7838" />
          <path
             d="m 5601.65,23558.4 c -1.11,-2.3 -2.48,-5.2 -4.03,-8.4 0,-0.2 0.02,-0.3 0.07,-0.4 l 0.12,-15.5 c 0.03,0.2 0.07,0.4 0.11,0.7 1.5,7.1 9.91,36.7 3.73,23.6 z"
             fill="#a80919"
             id="path7839" />
          <path
             d="m 5969.89,23298.4 c 0,0 0,0 0,0 -0.08,7.4 -8.45,16.4 -8.75,23.8 -0.49,12.2 -1.49,81.1 -5.48,86.6 -3.98,5.5 -12.07,-13.9 -21.5,-17.5 -9.42,-3.7 7.33,17.7 14.77,22.9 2.77,2 4,6.8 4.16,12.2 0.03,0.4 0.03,0.7 0.02,1.1 0.01,0.5 0.01,1 -0.01,1.6 0,0.2 0,0.5 -0.02,0.8 -0.33,8 -2.64,16.2 -5.23,17 -4.73,1.5 -36.98,-25.6 -60.69,-49 -23.71,-23.4 -3.13,10.3 8.57,21.4 4.78,4.5 10.13,11.1 15.75,18.2 8.14,10.3 16.85,21.8 25.17,29.8 2.4,2.3 3.52,5.3 3.7,8.6 v 0.2 c 0.04,0.7 0.04,1.3 -0.02,2 -0.88,16.5 -20.54,40 -24.59,39.4 -5.1,-0.9 -9.98,-9.1 -13.43,-6 -3.47,3.1 2.38,9.4 1.15,15.7 -0.04,0.2 -0.08,0.3 -0.13,0.5 -0.38,1.3 -1.14,2 -2.13,2.2 -3.27,0.6 -9.08,-3.8 -12.26,-9.1 -4.26,-7.2 -10.35,-15.4 -14.18,-13.3 -3.82,2.1 5.93,11.6 8.62,18.3 2.7,6.8 -15.69,-5.2 -27.75,-21.1 -12.06,-15.8 -2.1,14.2 15.87,29.7 3.92,3.4 6.62,6.5 8.37,9.3 2.3,3.6 3.05,6.8 2.94,9.6 0.01,0 0,0 0,0 -0.21,4.9 -3.09,8.3 -4.87,10.7 -3.58,4.7 -12.73,14 -17.78,6.9 -5.05,-7.1 -4.36,3.9 -1.65,9.1 2.71,5.1 -7.15,6.6 -12.19,-1.7 -5.04,-8.3 -11.25,-19 -15.98,-17.9 -4.74,1.2 13.58,22.6 14.68,32 0.03,0.3 0.04,0.6 0.04,0.9 -0.02,0.4 -0.09,0.9 -0.2,1.4 -2.25,10.2 -23.05,28 -29.29,34.5 -6.75,7 -14.51,-7.2 -21.2,-7.7 -6.69,-0.4 4.66,7.9 8.53,15 3.88,7.2 -9.9,7.4 -14.56,0.3 -4.66,-7.1 -12.8,-22.5 -17.91,-22.6 -4.45,0 2,15.2 7.09,22.9 0.03,0 0.06,0.1 0.07,0.1 0.47,0.7 0.94,1.3 1.38,1.9 0.23,0.3 0.45,0.5 0.68,0.8 0.64,0.7 0.99,1.3 1.12,1.8 0.06,0.3 0.07,0.5 0.04,0.7 v 0.1 c -0.53,3 -9.64,2.6 -13.76,-1.9 -5.07,-5.6 -11.71,-10.8 -12.91,-8 -1.22,2.7 4.81,11.3 10.19,14.6 5.39,3.2 -24.16,7.3 -33.16,0.1 -8.99,-7.1 -10.22,-17.2 -16.07,-14.6 -5.87,2.6 13.23,24 15.53,30 2.33,5.9 -58,15.6 -69.77,12 -11.77,-3.7 -24.01,-18.6 -36.33,-30.7 -9.01,-8.7 -30.5,-26 -35.1,-38.9 -4.61,-13 -8.95,-24.4 -14.45,-19.8 -2.5,2.2 -1.63,9.1 0.51,16.4 2.56,8.6 6.92,17.6 9.46,19.4 1.24,0.9 3.64,2.8 6.58,5.5 6.13,5.5 14.62,14.1 19.8,22.3 1.85,2.9 3.27,5.8 4.02,8.4 0.56,2.1 0.68,3.6 0.44,4.8 -1.36,6.7 -14.38,0.8 -21.77,4.1 -8.7,3.9 -15.75,4.7 -22.95,-6.2 -7.21,-11 -14.26,-15 -14.3,-10.3 -0.05,4.8 4.98,9.8 8.7,14.6 3.73,4.8 -4.96,7.5 -10.81,0.4 -5.85,-7.1 -7.81,-6.4 -5.89,-1.6 1.93,4.7 -4.28,3.8 -12.89,-5.9 -8.62,-9.7 -21.32,1.2 -38.91,-12.3 -17.6,-13.5 -23.87,-15.2 -36.48,-14.9 -2.55,0.1 -3.63,-1.3 -3.61,-3.7 v -0.2 c 0.23,-9.4 16.92,-33.6 26.07,-42.6 11.5,-11.5 29.62,-12.9 46.33,-32.8 16.71,-19.9 36.65,-49.7 44.08,-42.9 6.09,5.5 17.09,27.3 24.26,42.2 1.55,3.2 2.92,6.1 4.03,8.4 6.18,13.1 -2.23,-16.5 -3.73,-23.6 -0.04,-0.3 -0.08,-0.5 -0.11,-0.7 -0.07,-0.5 -0.07,-1 0.01,-1.3 0.48,-2 3.57,-0.3 8.21,6.2 0.17,0.3 0.35,0.6 0.54,0.8 3.07,4.5 6.77,10.9 10.81,19.5 2.06,4.4 3.6,6.9 4.71,7.9 5.39,4.9 0.58,-24.2 -6.85,-33.1 -7.65,-9.1 -22.71,-30.2 -22.68,-39.5 v -0.1 c 0.01,-0.1 0.01,-0.1 0.02,-0.2 0.06,-1.4 0.5,-2.5 1.39,-3.3 5.06,-4 8.69,2.9 14.63,10 1.98,2.4 4.23,4.8 6.87,6.8 10.56,7.9 -6.95,-15.5 -6.89,-22.5 0.06,-7.1 13.35,3.6 22.27,19.8 8.91,16.3 41.4,82.3 53.9,93 0.81,0.7 1.49,1.1 2.03,1.2 7.93,1.4 -10.02,-55.9 -15.4,-60.4 -5.76,-4.7 -22.51,-23.4 -22.8,-36 -0.26,-11.7 -13.88,-21.2 -14.4,-27.2 l -0.01,-0.6 c 0,-0.1 0.01,-0.1 0.02,-0.1 0,-0.2 0.03,-0.4 0.08,-0.5 1.61,-5.9 11.32,6.8 15.06,7.8 3.76,1 -2.82,-12.1 1.15,-16 3.97,-3.9 22.47,-3.3 27.53,2.3 5.07,5.5 5.86,6.3 5.12,-0.4 -0.72,-6.7 -1.36,-11 6.82,-7.8 8.18,3.2 26.09,25.4 27.59,34.5 1.5,9 0.01,11.7 7.6,15.2 3.44,1.5 9.48,7.8 16.01,16.1 0,0 0,0 0,0 7.86,9.9 16.39,22.7 21.89,33.2 10.06,19.4 13.32,7.2 8.28,-1.9 -5.05,-9.1 -24.07,-39.9 -29.53,-44.7 -5.47,-4.8 2.01,-4.7 8.25,0.9 6.26,5.5 -9.32,-14.3 -16.61,-34.8 -1.04,-3 -1.65,-5 -1.9,-6.4 -0.09,-0.5 -0.13,-0.8 -0.13,-1.2 0.04,-4.7 10.62,11 18.5,15.2 9.78,5.2 -25.65,-39.6 -25.6,-44.7 0.04,-5.1 15.06,-10.9 21.42,-18.7 2.85,-3.5 7.55,0 12.51,5.3 0,0.1 0,0.1 0,0.1 6.11,6.5 12.61,15.8 16.47,18.1 7,4 -6.56,-20.6 -13.59,-27.3 -2.03,-2 -2.92,-3.9 -3.01,-5.6 0,-0.1 -0.02,-0.2 0,-0.2 -0.12,-4.1 4.25,-6.8 7.82,-4.8 2.95,1.6 11.29,11.5 20.03,21.4 h 0.02 c 6.32,7.1 12.87,14.3 17.8,18.3 11.71,9.5 -9.64,-23.7 -16.68,-29.7 -7.03,-5.9 0.46,-6.7 8.31,-4.6 7.85,2 0.86,-8.8 -8.17,-10.8 -5.17,-1.1 -6.82,-6.5 -6.78,-11.5 l 0.01,-0.3 c 0.09,-3.6 1.05,-7 2.21,-8.3 2.78,-3.1 16.94,-1 22.39,5.8 3.11,3.8 6.34,6.8 10.21,8.9 2.94,1.6 6.24,2.6 10.16,3 9.05,0.9 15.98,19.1 23.82,22.7 7.84,3.6 -10.01,-26.5 -24.1,-34.5 -8.5,-4.8 -13.26,-11.7 -13.9,-16.1 -0.42,-2.9 0.94,-4.7 4.21,-4 h 0.02 c 8.25,1.6 19.94,14.3 30.53,18.7 10.6,4.5 7.16,7.7 10.5,16.2 2.32,5.9 32.7,41.7 40.55,44.1 7.85,2.4 -22.15,-33.3 -29.93,-44 -7.77,-10.6 -38.95,-46.3 -57.78,-55.5 -1.17,-0.6 -1.73,-1.4 -1.77,-2.3 -0.24,-4 9.4,-11.1 23.96,-19 25.19,-13.7 65.09,-29.9 93.81,-37.2 12.76,-3.2 23.32,-4.6 29.41,-3.3 11.06,2.5 14.79,6.4 15.1,10.9 0.01,0.3 0.03,0.5 0.03,0.8 z"
             fill="url(#paint619_radial_14_36462)"
             id="path7840"
             style="fill:url(#paint619_radial_14_36462)" />
          <path
             d="m 5485.88,23433.6 c -6.34,-7.1 -19.5,-12.6 -33.37,-15.7 -13.08,-2.9 7.13,7.8 17.88,14.4 7.45,4.5 39.89,28.6 15.49,1.3 z"
             fill="#ffffff"
             id="path7841" />
          <path
             d="m 5490.08,23399.7 c -8.23,-6.2 -20.35,-14.7 -25.2,-17.1 -11.41,-5.7 -5.68,3 4.16,12 7.98,7.2 16.17,12.9 21.82,17 6.96,5 16.32,10.2 23.1,11 6.69,0.8 -9.98,-12.3 -23.88,-22.9 z"
             fill="#ffffff"
             id="path7842" />
          <path
             d="m 5493.49,23373.8 c 0,0 10.46,10.4 17.82,18.2 7.37,7.7 13.93,15.1 19.7,18 5.78,2.9 2.1,-14.2 -9.44,-20.8 -11.55,-6.5 -37.88,-25.3 -28.08,-15.4 z"
             fill="#ffffff"
             id="path7843" />
          <path
             d="m 5571.43,23377.2 c -6.46,-5.9 -20.31,-18.5 -25.51,-18 -5.2,0.4 10.55,11.6 18.68,21.1 8.14,9.5 15.75,15.8 21.26,17.6 5.51,1.8 -7.18,-14.1 -14.43,-20.7 z"
             fill="#ffffff"
             id="path7844" />
          <path
             d="m 5569.06,23394.9 c -3.3,-1.7 -9.44,-4.3 -10.76,-3 -1.31,1.3 7.48,10.5 16.34,12.4 8.85,2 -2.3,-7.7 -5.58,-9.4 z"
             fill="#ffffff"
             id="path7845" />
          <path
             d="m 5465.67,23477.4 c -3.62,-1 -8.4,-1 -11.55,1.1 -3.14,2.1 10.24,4.7 13.65,4.4 3.41,-0.2 0.9,-4.7 -2.1,-5.5 z"
             fill="#ffffff"
             id="path7846" />
          <path
             d="m 5633.99,23580.8 c -0.97,-3.7 -3.6,-7.7 -7.66,-8.8 -4.05,-1 0.67,12 2.88,14.6 2.21,2.6 5.59,-2.7 4.78,-5.8 z"
             fill="#ffffff"
             id="path7847" />
          <path
             d="m 5520.29,23250.9 c -2.69,-2.6 -6.82,-5 -10.6,-4.7 -3.77,0.3 6.64,9.1 9.74,10.6 3.11,1.4 3.07,-3.7 0.86,-5.9 z"
             fill="#ffffff"
             id="path7848" />
          <path
             d="m 5421.32,23524.7 c -3.44,-1.9 -7.35,-1.1 -8.92,1 -1.58,2.1 16.79,3.2 8.92,-1 z"
             fill="#ffffff"
             id="path7849" />
          <path
             d="m 5521.96,23334.7 c 0,0 -7.87,-24.6 -22.09,-32 -13,-6.9 -6.64,0.7 -0.15,8.6 4.87,5.9 28.07,36.4 22.24,23.4 z"
             fill="#ffffff"
             id="path7850" />
          <path
             d="m 5507.29,23333.4 c -4.85,-4.5 -12.64,-10.3 -9.74,-4.8 1.34,2.6 12.77,18 16.92,20.5 4.15,2.6 -1.94,-10.9 -7.18,-15.7 z"
             fill="#ffffff"
             id="path7851" />
          <path
             d="m 5512.53,23284.7 c -4.4,-2.8 -13.65,-11 -20.22,-8.8 -6.56,2.1 10.5,8.1 23.03,20.3 12.53,12.2 32.21,20.8 44.02,33.6 11.8,12.8 17.58,19.6 27.85,33.1 5.13,6.7 -5.62,-21.9 -14.27,-29.9 -8.66,-8.1 -22.25,-20.7 -20.67,-23.5 1.57,-2.7 27.22,18.4 34.94,26.6 7.41,7.9 15.76,19.5 24.86,35.6 7.47,13.1 5.38,-7.2 -7.84,-27.1 -17.02,-25.6 -44.09,-40.6 -49.4,-44.6 -5.31,-4 -0.4,-5.6 7.48,0 7.87,5.6 5.9,-6.4 -5.12,-14.3 -11.02,-7.8 -29.32,-12.4 -26.18,-1.7 3.15,10.6 -0.36,12.5 -18.48,0.7 z"
             fill="#ffffff"
             id="path7852" />
          <path
             d="m 5592.62,23270.6 c -3.87,-3.4 -14.96,-10.1 -26.57,-7.3 -11.61,2.7 10.23,13.2 19.28,23.8 9.06,10.6 14.57,19.9 17.13,20.7 2.56,0.8 -0.98,-14.8 -6.69,-20.5 -5.71,-5.7 -0.4,-4.1 6.1,0.4 6.49,4.5 -2.56,-11.2 -9.25,-17.1 z"
             fill="#ffffff"
             id="path7853" />
          <path
             d="m 5618.31,23323.8 c -2.78,-7.4 -9.85,-11.7 -11.59,-8.3 -1.74,3.4 18.07,25.6 11.59,8.3 z"
             fill="#ffffff"
             id="path7854" />
          <path
             d="m 5628.42,23227.6 c -4.07,-7.1 -14.67,-10.2 -8.8,-3.1 2.45,3 4.49,7.5 7.03,12.9 1.91,4 7.22,-0.4 1.77,-9.8 z"
             fill="#ffffff"
             id="path7855" />
          <path
             d="m 5840.74,23231.9 c -0.44,-7 -7.42,-13.4 -5.61,-5.7 0.75,3.2 0.58,7.5 0.47,12.6 -0.08,3.9 5.73,2.5 5.14,-6.9 z"
             fill="#ffffff"
             id="path7856" />
          <path
             d="m 5849.04,23232.1 c -0.27,-4.4 -4.63,-8.4 -3.5,-3.6 0.47,2 0.36,4.7 0.29,7.9 -0.05,2.4 3.58,1.5 3.21,-4.3 z"
             fill="#ffffff"
             id="path7857" />
          <path
             d="m 5660.91,23228.5 c -3.6,-8.3 -13.94,-21.2 -17.32,-23.3 -4.72,-2.9 -6.1,-0.9 0,7.7 6.1,8.7 13.19,23 17.32,40 2.57,10.5 5.69,32.3 7.88,32.3 3.76,0 2.36,-33.3 -7.88,-56.7 z"
             fill="#ffffff"
             id="path7858" />
          <path
             d="m 5711.82,23173.8 c -5.83,-10.3 -15.46,-21.7 -23.74,-20.6 -8.27,1.2 8.26,9.8 13.25,24 4.98,14.2 -8.66,10 -12.08,5.5 -3.41,-4.4 -7.87,0.8 -8.66,6.1 -0.78,5.2 -11.86,-8.4 -18.65,-10.5 -6.8,-2.1 2.65,6.2 11.31,25.7 8.66,19.4 12.59,58.5 16,65.3 3.42,6.8 4.99,-32.3 1.58,-39.6 -3.41,-7.3 5.55,0.5 8.55,27.3 3,26.8 1.95,36.7 5.62,37 3.67,0.3 1.23,-65.6 -5.62,-87.1 -6.86,-21.6 14.28,0.8 20.32,10.5 6.03,9.7 1.31,-27.3 -7.88,-43.6 z"
             fill="#ffffff"
             id="path7859" />
          <path
             d="m 5763.52,23223.6 c -1.67,-9.9 -11.02,-24.3 -16.53,-25.7 -5.51,-1.3 3.93,12.6 6.56,37.3 2.62,24.7 2.62,34.4 6.03,34.4 3.42,0 6.83,-29.1 3.94,-46 z"
             fill="#ffffff"
             id="path7860" />
          <path
             d="m 5785.3,23211.3 c -4.62,-8.6 -13.65,-15.5 -15.48,-12.3 -1.84,3.1 10.76,9.7 11.81,52 1.05,42.2 8.92,-10 9.18,-15.8 0.26,-5.8 7.35,3.7 11.02,16 3.68,12.3 7.09,-34.9 -2.88,-47.2 -9.98,-12.4 -3.68,26 -13.65,7.3 z"
             fill="#ffffff"
             id="path7861" />
          <path
             d="m 5445.99,23355.4 c 0,1.6 -1.65,1.8 -3.67,0.5 -2.03,-1.3 -3.67,-3.6 -3.67,-5.2 0,-1.6 1.64,-1.9 3.67,-0.6 2.02,1.3 3.67,3.7 3.67,5.3 z"
             fill="#ffffff"
             id="path7862" />
          <path
             d="m 5507.76,23600.1 c -3.88,-10.4 -5.08,-26.9 -7.02,-23.5 -1.23,2.2 -0.09,23.1 3.63,33.6 3.72,10.5 20.03,34.4 3.39,-10.1 z"
             fill="#ffffff"
             id="path7863" />
          <path
             d="m 5490.52,23602.3 c -0.92,-4.2 -1.9,-9.3 -2.34,-13.4 -0.37,-3.4 -3.52,-1.5 -4.11,6 -0.86,11 4.62,21.2 7.41,23.8 8.63,8.1 1.24,-6.3 -0.96,-16.4 z"
             fill="#ffffff"
             id="path7864" />
          <path
             d="m 5527.73,23574 c -0.57,-2.2 -0.92,-8.3 -3.93,-7 -3.02,1.4 -6.22,8.9 2.62,15.1 3.94,2.8 2.02,-5.3 1.31,-8.1 z"
             fill="#ffffff"
             id="path7865" />
          <path
             d="m 5693.19,23526.8 c -2.37,-3.7 -7.87,5.2 -2.36,11 5.51,5.8 9.71,0.2 2.36,-11 z"
             fill="#ffffff"
             id="path7866" />
          <path
             d="m 5785.3,23466.9 c -2.57,-4.9 -9.45,-5 -6.3,2.4 3.15,7.3 12.86,10.2 6.3,-2.4 z"
             fill="#ffffff"
             id="path7867" />
          <path
             d="m 5763.26,23494.7 c -2.29,1.4 -0.79,7.9 1.57,9.8 2.36,1.8 3.41,-12.6 -1.57,-9.8 z"
             fill="#ffffff"
             id="path7868" />
          <path
             d="m 5877.61,23349.5 c -3.46,-4.9 -11.42,-5.5 -6.89,4.5 4.52,10.1 16.92,9.7 6.89,-4.5 z"
             fill="#ffffff"
             id="path7869" />
          <path
             d="m 5895.32,23330.2 c -3.91,-3 -1.38,3.9 0,5.1 1.38,1.2 5.31,-1 0,-5.1 z"
             fill="#ffffff"
             id="path7870" />
        </g>
      </g>
    </g>
  </g>
</svg>
