<?xml version="1.0" encoding="UTF-8" standalone="no"?>
<svg
   viewBox="0 0 64 64"
   version="1.1"
   id="svg4"
   sodipodi:docname="document-open-recent.svg"
   inkscape:version="1.4.4 (unknown)"
   xmlns:inkscape="http://www.inkscape.org/namespaces/inkscape"
   xmlns:sodipodi="http://sodipodi.sourceforge.net/DTD/sodipodi-0.dtd"
   xmlns:xlink="http://www.w3.org/1999/xlink"
   xmlns="http://www.w3.org/2000/svg"
   xmlns:svg="http://www.w3.org/2000/svg">
  <sodipodi:namedview
     id="namedview4"
     pagecolor="#ffffff"
     bordercolor="#000000"
     borderopacity="0.25"
     inkscape:showpageshadow="2"
     inkscape:pageopacity="0.0"
     inkscape:pagecheckerboard="0"
     inkscape:deskcolor="#d1d1d1"
     inkscape:zoom="8.4079416"
     inkscape:cx="28.901247"
     inkscape:cy="20.635253"
     inkscape:current-layer="svg4"
     inkscape:window-width="1920"
     inkscape:window-height="994"
     inkscape:window-x="0"
     inkscape:window-y="0"
     inkscape:window-maximized="1" />
  <defs
     id="defs3051">
    <linearGradient
       id="linearGradient1"
       inkscape:collect="always">
      <stop
         style="stop-color:#005f88;stop-opacity:1;"
         offset="0"
         id="stop1" />
      <stop
         style="stop-color:#05b1ff;stop-opacity:1;"
         offset="1"
         id="stop2" />
    </linearGradient>
    <style
       type="text/css"
       id="current-color-scheme">
      .ColorScheme-Text {
      color:#232629;
      }
      .ColorScheme-Accent {
      color:#3daee9;
      }
    </style>
    <linearGradient
       inkscape:collect="always"
       xlink:href="#linearGradient1"
       id="linearGradient2"
       x1="4.0006635"
       y1="13"
       x2="59.995008"
       y2="13"
       gradientUnits="userSpaceOnUse" />
  </defs>
  <path
     style="fill:#a1b4ba;fill-opacity:1"
     d="m 4.0006635,10 v 1 9 0 c -0.5203637,0.02153 -1.0229638,0.505476 -0.999899,1 h 0.00195 c -4.69e-5,0.004 -0.00195,0.008 -0.00195,0.01172 V 56 c 0.00871,0.999392 0.9801138,2.005992 1.999798,2 v 0 H 58.995109 v 0 c 1.011732,0.02205 1.994216,-0.972534 1.999798,-2 V 21.011719 21 17 c 0.05936,-0.589244 -0.407896,-1.006383 -0.999899,-1 v -4 c 0,-0.003 -0.002,0.004 -0.002,0 h 0.002 v 0 c -0.0061,-1.000671 -0.953819,-1.995969 -1.999798,-2 H 31.997836 L 27.99824,6 H 8.0002595 C 5.9630216,5.99492 4.0363539,7.9703236 4.0006635,10 Z"
     class="ColorScheme-Accent"
     id="path1" />
  <path
     style="fill-opacity:1.0;fill:url(#linearGradient2);"
     d="m 4.0302775,10 -0.029614,1 v 9 H 21.998846 l 3.999596,-4 h 33.996566 v -4 c 0,-0.003 -0.002,0.004 -0.002,0 h 0.002 C 59.988808,10.988725 58.990992,9.9943186 57.99521,10 H 31.997836 L 27.99824,6 H 8.0002595 C 5.9928069,6.00259 3.994256,8.0072001 4.0302775,10 Z"
     id="path2" />
  <path
     style="fill:#ffffff;fill-opacity:0.2"
     d="m 27.99824,6 2.999697,5 h 1.999798 24.997475 c 1.212814,-0.06389 2.005543,1.005906 1.999798,2 v -1 c 6e-4,-0.992592 -0.988601,-1.993446 -1.999798,-2 H 32.997735 31.997836 Z m -1.999798,10 -3.999596,4 H 3.0007645 v 1 H 22.998745 Z"
     id="path3" />
  <path
     style="fill-opacity:0.2"
     d="m 25.998442,16 -5.999394,3 H 4.0006635 v 1 H 21.998846 Z M 3.0007645,56 c 0.00641,1.008598 0.9937008,2.001463 1.999798,2 v 0 H 58.995109 v 0 0 c 1.002828,0.0016 2.001139,-0.999662 1.999798,-2 z"
     class="ColorScheme-Text"
     id="path4" />
  <path
     id="path12-7"
     class="ColorScheme-Background"
     d="m 32,27 c -5.522847,0 -10,4.477153 -10,10 0,5.522847 4.477153,10 10,10 5.522847,0 9.999999,-4.477153 9.999999,-10 0,-5.522847 -4.477152,-10 -9.999999,-10 z m 0,1 c 4.970563,0 8.999999,4.029437 8.999999,9 0,4.970563 -4.029436,9 -8.999999,9 -4.970563,0 -9,-4.029437 -9,-9 0,-4.970563 4.029437,-9 9,-9 z m -1,1 v 8 1 h 8.999999 V 37 H 32 v -8 z"
     style="color:#eff0f1;fill:#002d3c;fill-opacity:1;stroke:none" />
</svg>
