<?xml version="1.0" encoding="UTF-8" standalone="no"?>
<svg
   width="48"
   height="48"
   version="1.1"
   id="svg6"
   sodipodi:docname="actionaz.svg"
   inkscape:version="1.4.4 (unknown)"
   xmlns:inkscape="http://www.inkscape.org/namespaces/inkscape"
   xmlns:sodipodi="http://sodipodi.sourceforge.net/DTD/sodipodi-0.dtd"
   xmlns="http://www.w3.org/2000/svg"
   xmlns:svg="http://www.w3.org/2000/svg">
  <defs
     id="defs6" />
  <sodipodi:namedview
     id="namedview6"
     pagecolor="#ffffff"
     bordercolor="#000000"
     borderopacity="0.25"
     inkscape:showpageshadow="2"
     inkscape:pageopacity="0.0"
     inkscape:pagecheckerboard="0"
     inkscape:deskcolor="#d1d1d1"
     inkscape:zoom="7.8854167"
     inkscape:cx="22.446499"
     inkscape:cy="20.861295"
     inkscape:window-width="1920"
     inkscape:window-height="994"
     inkscape:window-x="0"
     inkscape:window-y="0"
     inkscape:window-maximized="1"
     inkscape:current-layer="svg6" />
  <g
     transform="matrix(1.95,0,0,1.9512195,2.55,2.0487806)"
     id="g6">
    <path
       d="m 2,21.5 h 4 l 5,-11 5,11 h 4 L 13,6.5 H 9 Z"
       style="opacity:0.2"
       id="path1" />
    <path
       d="m 2,21 h 4 l 5,-11 5,11 h 4 L 13,6 H 9 Z"
       style="fill:#8d5fd3"
       id="path2" />
    <path
       d="M 9,6 2,21 H 2.2324219 L 9,6.5 h 4 L 19.767578,21 H 20 L 13,6 Z"
       style="opacity:0.1;fill:#ffffff"
       id="path3" />
    <path
       d="m 5,1.5 c -2.216,0 -4,1.784 -4,4 v 8 c 0,2.216 1.784,4 4,4 h 12 c 2.216,0 4,-1.784 4,-4 v -8 c 0,-2.216 -1.784,-4 -4,-4 h -3 v 4 h 1 c 1.108,0 2,0.892 2,2 v 4 c 0,1.108 -0.892,2 -2,2 H 7 c -1.108,0 -2,-0.892 -2,-2 v -4 c 0,-1.108 0.892,-2 2,-2 h 1 v -4 z"
       style="opacity:0.2"
       id="path4" />
    <path
       d="M 5,1 C 2.784,1 1,2.784 1,5 v 8 c 0,2.216 1.784,4 4,4 h 12 c 2.216,0 4,-1.784 4,-4 V 5 C 21,2.784 19.216,1 17,1 h -3 v 4 h 1 c 1.108,0 2,0.892 2,2 v 4 c 0,1.108 -0.892,2 -2,2 H 7 C 5.892,13 5,12.108 5,11 V 7 C 5,5.892 5.892,5 7,5 H 8 V 1 Z"
       style="fill:#aa87de"
       id="path5" />
    <path
       d="M 5,1 C 2.784,1 1,2.784 1,5 v 0.5 c 0,-2.216 1.784,-4 4,-4 H 8 V 1 Z m 9,0 v 0.5 h 3 c 2.216,0 4,1.784 4,4 V 5 C 21,2.784 19.216,1 17,1 Z M 5,11 v 0.5 c 0,1.108 0.892,2 2,2 h 8 c 1.108,0 2,-0.892 2,-2 V 11 c 0,1.108 -0.892,2 -2,2 H 7 C 5.892,13 5,12.108 5,11 Z"
       style="opacity:0.2;fill:#ffffff"
       id="path6" />
  </g>
</svg>
