<?xml version="1.0" encoding="UTF-8" standalone="no"?>
<svg
   width="48"
   height="48"
   viewBox="0 0 12.7 12.7"
   version="1.1"
   id="svg79"
   sodipodi:docname="com.github.arshubham.cipher.svg"
   inkscape:version="1.4.4 (unknown)"
   xmlns:inkscape="http://www.inkscape.org/namespaces/inkscape"
   xmlns:sodipodi="http://sodipodi.sourceforge.net/DTD/sodipodi-0.dtd"
   xmlns:xlink="http://www.w3.org/1999/xlink"
   xmlns="http://www.w3.org/2000/svg"
   xmlns:svg="http://www.w3.org/2000/svg">
  <sodipodi:namedview
     id="namedview79"
     pagecolor="#ffffff"
     bordercolor="#000000"
     borderopacity="0.25"
     inkscape:showpageshadow="2"
     inkscape:pageopacity="0.0"
     inkscape:pagecheckerboard="0"
     inkscape:deskcolor="#d1d1d1"
     inkscape:zoom="8.3637474"
     inkscape:cx="25.34749"
     inkscape:cy="17.276945"
     inkscape:window-width="1920"
     inkscape:window-height="994"
     inkscape:window-x="0"
     inkscape:window-y="0"
     inkscape:window-maximized="1"
     inkscape:current-layer="svg79" />
  <defs
     id="defs59">
    <linearGradient
       id="k">
      <stop
         offset="0"
         stop-color="#0c0111"
         id="stop1" />
      <stop
         offset=".837"
         stop-opacity=".427"
         id="stop2" />
      <stop
         offset="1"
         stop-color="#3c0756"
         stop-opacity="0"
         id="stop3" />
    </linearGradient>
    <linearGradient
       id="j">
      <stop
         offset="0"
         stop-color="#2d82ef"
         id="stop4"
         style="stop-color:#8d5fd3;stop-opacity:1" />
      <stop
         offset="1"
         stop-color="#4adbf1"
         id="stop5" />
    </linearGradient>
    <linearGradient
       id="f">
      <stop
         offset="0"
         stop-color="#fff"
         id="stop6"
         style="stop-color:#c6afe9;stop-opacity:1" />
      <stop
         offset="1"
         stop-color="#f0f0f0"
         id="stop7" />
    </linearGradient>
    <linearGradient
       id="a">
      <stop
         offset="0"
         stop-color="#0068e0"
         id="stop8" />
      <stop
         offset="1"
         stop-color="#00acf4"
         id="stop9" />
    </linearGradient>
    <filter
       id="b"
       width="1"
       height="1"
       x="0"
       y="0">
      <feColorMatrix
         in="SourceGraphic"
         values="0 0 0 0 1 0 0 0 0 1 0 0 0 0 1 0 0 0 1 0"
         id="feColorMatrix9" />
    </filter>
    <clipPath
       id="c">
      <path
         d="M 0,0 H 384 V 384 H 0 Z"
         id="path9" />
    </clipPath>
    <clipPath
       id="d">
      <path
         d="M 0,0 H 384 V 384 H 0 Z"
         id="path10" />
    </clipPath>
    <linearGradient
       y2="71.019997"
       x2="84.091003"
       y1="117.042"
       x1="122.341"
       gradientUnits="userSpaceOnUse"
       id="F"
       xlink:href="#e"
       gradientTransform="matrix(0.26458,0,0,0.26458,-73.214,269.229)" />
    <linearGradient
       id="e">
      <stop
         offset="0"
         stop-color="#d5dada"
         id="stop10" />
      <stop
         offset="1"
         stop-color="#f1f1f1"
         id="stop11" />
    </linearGradient>
    <linearGradient
       xlink:href="#f"
       id="G"
       x1="-39.014"
       y1="265.75601"
       x2="-21.756001"
       y2="285.733"
       gradientUnits="userSpaceOnUse" />
    <filter
       y="0"
       x="0"
       height="1"
       width="1"
       id="g">
      <feColorMatrix
         values="0 0 0 0 1 0 0 0 0 1 0 0 0 0 1 0 0 0 1 0"
         in="SourceGraphic"
         id="feColorMatrix11" />
    </filter>
    <clipPath
       id="h">
      <path
         d="M 0,0 H 384 V 384 H 0 Z"
         id="path11" />
    </clipPath>
    <clipPath
       id="i">
      <path
         d="M 0,0 H 384 V 384 H 0 Z"
         id="path12" />
    </clipPath>
    <linearGradient
       xlink:href="#e"
       id="T"
       gradientUnits="userSpaceOnUse"
       gradientTransform="matrix(0.26458,0,0,0.26458,-114.234,271.806)"
       x1="122.341"
       y1="117.042"
       x2="84.091003"
       y2="71.019997" />
    <linearGradient
       xlink:href="#j"
       id="V"
       x1="26.341"
       y1="294.78799"
       x2="23.903999"
       y2="281.59201"
       gradientUnits="userSpaceOnUse" />
    <radialGradient
       xlink:href="#k"
       id="U"
       cx="25.628"
       cy="288.76001"
       fx="25.628"
       fy="288.76001"
       r="11.299"
       gradientTransform="matrix(3.46938,-0.02249,0.01829,2.82136,2.636,-719.206)"
       gradientUnits="userSpaceOnUse" />
    <linearGradient
       id="A">
      <stop
         offset="0"
         stop-color="#fff"
         id="stop12" />
      <stop
         offset=".089"
         stop-color="#fff"
         stop-opacity=".235"
         id="stop13" />
      <stop
         offset=".915"
         stop-color="#fff"
         stop-opacity=".157"
         id="stop14" />
      <stop
         offset="1"
         stop-color="#fff"
         stop-opacity=".392"
         id="stop15" />
    </linearGradient>
    <linearGradient
       id="w">
      <stop
         offset="0"
         stop-color="#eaece9"
         id="stop16" />
      <stop
         offset="1"
         stop-color="#abacae"
         id="stop17" />
    </linearGradient>
    <linearGradient
       id="D">
      <stop
         offset="0"
         stop-color="#fff"
         id="stop18" />
      <stop
         offset=".142"
         stop-color="#fff"
         stop-opacity=".235"
         id="stop19" />
      <stop
         offset=".945"
         stop-color="#fff"
         stop-opacity=".157"
         id="stop20" />
      <stop
         offset="1"
         stop-color="#fff"
         stop-opacity=".392"
         id="stop21" />
    </linearGradient>
    <linearGradient
       id="C">
      <stop
         offset="0"
         stop-color="#d4d4d4"
         id="stop22" />
      <stop
         offset="1"
         stop-color="#fafafa"
         id="stop23" />
    </linearGradient>
    <linearGradient
       id="m">
      <stop
         offset="0"
         stop-color="#f8ffff"
         id="stop24" />
      <stop
         offset="1"
         stop-color="#fafafa"
         id="stop25" />
    </linearGradient>
    <linearGradient
       id="l">
      <stop
         offset="0"
         stop-color="#36bebe"
         id="stop26" />
      <stop
         offset="1"
         stop-color="#8cfcff"
         id="stop27" />
    </linearGradient>
    <filter
       height="4.8280001"
       y="-1.914"
       width="1.1210001"
       x="-0.061000001"
       id="aa"
       color-interpolation-filters="sRGB">
      <feGaussianBlur
         stdDeviation="1.209"
         id="feGaussianBlur27" />
    </filter>
    <linearGradient
       gradientTransform="matrix(7.06958,0,0,7.06958,8.443,-105.557)"
       gradientUnits="userSpaceOnUse"
       y2="0.92900002"
       x2="7.8410001"
       y1="14.762"
       x1="7.8940001"
       id="ab"
       xlink:href="#l" />
    <linearGradient
       gradientTransform="matrix(2.13107,0,0,2.06556,13.854,-34.623)"
       gradientUnits="userSpaceOnUse"
       y2="5.098"
       x2="23.996"
       y1="-21.021"
       x1="24.049"
       id="ac"
       xlink:href="#m" />
    <linearGradient
       id="n">
      <stop
         offset="0"
         id="stop28" />
      <stop
         offset="1"
         stop-opacity="0"
         id="stop29" />
    </linearGradient>
    <linearGradient
       gradientTransform="matrix(2.5424,0,0,2.5424,3.983,-110.017)"
       gradientUnits="userSpaceOnUse"
       xlink:href="#o"
       id="ad"
       y2="43"
       x2="24"
       y1="5"
       x1="24" />
    <linearGradient
       id="o">
      <stop
         offset="0"
         stop-color="#fff"
         id="stop30" />
      <stop
         offset=".063"
         stop-color="#fff"
         stop-opacity=".235"
         id="stop31" />
      <stop
         offset=".951"
         stop-color="#fff"
         stop-opacity=".157"
         id="stop32" />
      <stop
         offset="1"
         stop-color="#fff"
         stop-opacity=".392"
         id="stop33" />
    </linearGradient>
    <linearGradient
       id="p">
      <stop
         offset="0"
         stop-color="#919caf"
         id="stop34" />
      <stop
         offset=".262"
         stop-color="#68758e"
         id="stop35" />
      <stop
         offset=".705"
         stop-color="#485a6c"
         id="stop36" />
      <stop
         offset="1"
         stop-color="#444c5c"
         id="stop37" />
    </linearGradient>
    <radialGradient
       gradientTransform="matrix(2.00378,0,0,1.4,27.988,-17.4)"
       gradientUnits="userSpaceOnUse"
       xlink:href="#q"
       id="X"
       fy="43.5"
       fx="4.993"
       r="2.5"
       cy="43.5"
       cx="4.993" />
    <linearGradient
       id="q">
      <stop
         offset="0"
         stop-color="#181818"
         id="stop38" />
      <stop
         offset="1"
         stop-color="#181818"
         stop-opacity="0"
         id="stop39" />
    </linearGradient>
    <radialGradient
       gradientTransform="matrix(2.00378,0,0,1.4,-20.012,-104.4)"
       gradientUnits="userSpaceOnUse"
       xlink:href="#q"
       id="Y"
       fy="43.5"
       fx="4.993"
       r="2.5"
       cy="43.5"
       cx="4.993" />
    <linearGradient
       gradientUnits="userSpaceOnUse"
       xlink:href="#r"
       id="Z"
       y2="39.999001"
       x2="25.058001"
       y1="47.028"
       x1="25.058001" />
    <linearGradient
       id="r">
      <stop
         offset="0"
         stop-color="#181818"
         stop-opacity="0"
         id="stop40" />
      <stop
         offset=".5"
         stop-color="#181818"
         id="stop41" />
      <stop
         offset="1"
         stop-color="#181818"
         stop-opacity="0"
         id="stop42" />
    </linearGradient>
    <radialGradient
       gradientTransform="matrix(1.5564,0,0,0.16979,70.27,-14.869)"
       gradientUnits="userSpaceOnUse"
       xlink:href="#n"
       id="W"
       fy="93.468002"
       fx="-4.0289998"
       r="35.338001"
       cy="93.468002"
       cx="-4.0289998" />
    <linearGradient
       id="s">
      <stop
         offset="0"
         stop-color="#fff"
         id="stop43" />
      <stop
         offset="1"
         stop-color="#fff"
         stop-opacity="0"
         id="stop44" />
    </linearGradient>
    <linearGradient
       id="t">
      <stop
         offset="0"
         stop-color="#fff"
         id="stop45" />
      <stop
         offset=".033"
         stop-color="#fff"
         stop-opacity=".235"
         id="stop46" />
      <stop
         offset=".986"
         stop-color="#fff"
         stop-opacity=".157"
         id="stop47" />
      <stop
         offset="1"
         stop-color="#fff"
         stop-opacity=".392"
         id="stop48" />
    </linearGradient>
    <linearGradient
       id="u">
      <stop
         offset="0"
         stop-color="#d88f22"
         id="stop49" />
      <stop
         offset="1"
         stop-color="#d88f22"
         stop-opacity="0"
         id="stop50" />
    </linearGradient>
    <linearGradient
       id="v">
      <stop
         offset="0"
         stop-color="#f2e0c4"
         id="stop51" />
      <stop
         offset=".765"
         stop-color="#e5af5b"
         id="stop52" />
      <stop
         offset="1"
         stop-color="#af6900"
         id="stop53" />
    </linearGradient>
    <linearGradient
       gradientTransform="matrix(0.72237,0,0,0.48158,-43.839,284.361)"
       gradientUnits="userSpaceOnUse"
       xlink:href="#r"
       id="J"
       y2="39.999001"
       x2="25.058001"
       y1="47.028"
       x1="25.058001" />
    <radialGradient
       gradientTransform="matrix(1.35098,0,0,0.67421,29.865,-334.638)"
       gradientUnits="userSpaceOnUse"
       xlink:href="#q"
       id="I"
       fy="43.5"
       fx="4.993"
       r="2.5"
       cy="43.5"
       cx="4.993" />
    <radialGradient
       gradientTransform="matrix(1.35098,0,0,0.67421,-23.139,275.982)"
       gradientUnits="userSpaceOnUse"
       xlink:href="#q"
       id="H"
       fy="43.5"
       fx="4.993"
       r="2.5"
       cy="43.5"
       cx="4.993" />
    <linearGradient
       id="z">
      <stop
         offset="0"
         stop-color="#cad0c6"
         id="stop54" />
      <stop
         offset=".5"
         stop-color="#eaece9"
         id="stop55" />
      <stop
         offset="1"
         stop-color="#c5cbc0"
         id="stop56" />
    </linearGradient>
    <linearGradient
       gradientTransform="matrix(0.63951,0,0,0.74438,-41.895,269.956)"
       gradientUnits="userSpaceOnUse"
       xlink:href="#w"
       id="L"
       y2="25.013"
       x2="24.499001"
       y1="3.4890001"
       x1="24.459999" />
    <clipPath
       id="N">
      <path
         d="M 35.382,60.546 V 41.345 c 0,-19.52 11.203,-28.794 28.511,-28.55 17.402,0.243 28.725,8.8 28.725,28.55 v 19.82 h -11.7 v -14.86 c 0,-4.96 1.21,-21.012 -16.903,-21.012 -17.964,0 -16.655,16.15 -16.585,20.993 v 14.343 z"
         fill="url(#x)"
         fill-rule="evenodd"
         stroke-width="1.887"
         id="path56" />
    </clipPath>
    <linearGradient
       y2="25.013"
       x2="24.499001"
       y1="3.4890001"
       x1="24.459999"
       gradientTransform="matrix(2.1309,0,0,2.48033,12.71,0.602)"
       gradientUnits="userSpaceOnUse"
       id="x"
       xlink:href="#w" />
    <clipPath
       id="M">
      <path
         d="M 49.03,58.355 V 43.792 c 0,-14.805 8.497,-21.839 21.624,-21.654 13.198,0.185 21.786,6.675 21.786,21.654 v 15.033 h -8.874 v -11.27 c 0,-3.763 0.919,-15.938 -12.82,-15.938 -13.625,0 -12.632,12.25 -12.579,15.922 v 10.88 z"
         fill="url(#y)"
         fill-rule="evenodd"
         stroke-width="1.887"
         id="path57" />
    </clipPath>
    <linearGradient
       y2="17.469999"
       x2="27.191999"
       y1="2.914"
       x1="10.651"
       gradientTransform="matrix(1.61616,0,0,1.88119,31.834,12.891)"
       gradientUnits="userSpaceOnUse"
       id="y"
       xlink:href="#z" />
    <linearGradient
       gradientUnits="userSpaceOnUse"
       y2="115.309"
       x2="63.931999"
       y1="82.251999"
       x1="63.98"
       id="S"
       xlink:href="#A" />
    <clipPath
       id="R">
      <path
         fill="#555761"
         stroke-width="0.9"
         d="m 19.636,83.204 h 88.727 v 29.74 H 19.636 Z"
         id="path58" />
    </clipPath>
    <linearGradient
       y2="-60.974998"
       x2="165.123"
       y1="-12.913"
       x1="164.561"
       gradientTransform="matrix(1.88723,0,0,1.88723,-239.24,126.675)"
       gradientUnits="userSpaceOnUse"
       id="B"
       xlink:href="#C" />
    <linearGradient
       gradientUnits="userSpaceOnUse"
       y2="128"
       x2="61.716"
       y1="33.533001"
       x1="64.514999"
       id="E"
       xlink:href="#w" />
    <linearGradient
       gradientUnits="userSpaceOnUse"
       y2="128"
       x2="62.884998"
       y1="42.862999"
       x1="63.238998"
       id="Q"
       xlink:href="#D" />
    <clipPath
       id="P">
      <rect
         style="marker:none"
         y="45.138"
         x="20.114"
         ry="3.1110001"
         rx="2.8310001"
         height="77.198997"
         width="87.771004"
         color="#000000"
         overflow="visible"
         fill="url(#E)"
         stroke-opacity="0.774"
         enable-background="accumulate"
         id="rect58" />
    </clipPath>
    <clipPath
       id="O">
      <path
         fill="#ffe16b"
         fill-rule="evenodd"
         stroke-width="0.983"
         stroke-linecap="round"
         stroke-linejoin="round"
         stroke-opacity="0.514"
         paint-order="markers fill stroke"
         d="m 211.839,-24.826 h 30.965 v 6.461 h -30.965 z"
         id="path59" />
    </clipPath>
    <linearGradient
       xlink:href="#w"
       id="K"
       gradientUnits="userSpaceOnUse"
       x1="64.514999"
       y1="33.533001"
       x2="61.716"
       y2="128"
       gradientTransform="matrix(0.26458,0,0,0.26458,-43.435,273.129)" />
  </defs>
  <g
     transform="matrix(0.33373311,0,0,0.33373311,0.78513574,-87.070712)"
     id="g79">
    <g
       transform="matrix(0.97501884,-0.15033107,0.15033107,0.97501884,22.553033,10.715833)"
       opacity="0.389"
       fill="none"
       stroke="#000000"
       stroke-linecap="round"
       stroke-linejoin="round"
       stroke-opacity="0.039"
       id="g64">
      <rect
         width="25.83"
         height="29.566999"
         x="-61.945"
         y="253.765"
         rx="1.442"
         ry="1.442"
         stroke-width="0.15"
         paint-order="fill markers stroke"
         id="rect59" />
      <rect
         ry="1.442"
         rx="1.442"
         y="253.765"
         x="-61.945"
         height="29.566999"
         width="25.83"
         stroke-width="0.3"
         paint-order="fill markers stroke"
         id="rect60" />
      <rect
         width="25.83"
         height="29.566999"
         x="-61.945"
         y="253.765"
         rx="1.442"
         ry="1.442"
         stroke-width="0.45"
         paint-order="fill markers stroke"
         id="rect61" />
      <rect
         ry="1.442"
         rx="1.442"
         y="253.765"
         x="-61.945"
         height="29.566999"
         width="25.83"
         stroke-width="0.6"
         paint-order="fill markers stroke"
         id="rect62" />
      <rect
         width="25.83"
         height="29.566999"
         x="-61.945"
         y="253.765"
         rx="1.442"
         ry="1.442"
         stroke-width="0.85"
         paint-order="fill markers stroke"
         id="rect63" />
      <rect
         ry="1.442"
         rx="1.442"
         y="253.765"
         x="-61.945"
         height="29.566999"
         width="25.83"
         paint-order="fill markers stroke"
         id="rect64" />
    </g>
    <rect
       width="25.483"
       height="29.169001"
       x="-40.457001"
       y="264.375"
       rx="1.423"
       ry="1.423"
       transform="rotate(-8.764)"
       fill="url(#G)"
       stroke-width="0.363"
       stroke-linecap="round"
       stroke-linejoin="round"
       stroke-opacity="0.148"
       paint-order="fill markers stroke"
       id="rect65"
       style="fill:url(#G)" />
    <g
       transform="matrix(0.60122,-0.09034,0.09034,0.60122,4.313,101.509)"
       id="g75">
      <path
         opacity="0.3"
         fill="url(#H)"
         stroke-width="0.499"
         d="m -16.389,303.624 h 3.371 v 3.371 h -3.371 z"
         id="path65"
         style="fill:url(#H)" />
      <path
         transform="scale(-1)"
         opacity="0.3"
         fill="url(#I)"
         stroke-width="0.499"
         d="m 36.615,-306.995 h 3.371 v 3.371 h -3.371 z"
         id="path66"
         style="fill:url(#I)" />
      <path
         opacity="0.3"
         fill="url(#J)"
         stroke-width="0.499"
         d="m -36.615,303.624 h 20.226 v 3.371 h -20.226 z"
         id="path67"
         style="fill:url(#J)" />
      <rect
         style="fill:url(#K);marker:none"
         y="285.07101"
         x="-38.112999"
         ry="0.82300001"
         rx="0.74900001"
         height="20.426001"
         width="23.223"
         color="#000000"
         overflow="visible"
         fill="url(#K)"
         stroke-width="0.265"
         stroke-opacity="0.774"
         enable-background="accumulate"
         id="rect67" />
      <path
         d="m -35.09,284.89 v -2.707 c 0,-5.858 3.362,-8.641 8.556,-8.568 5.223,0.073 8.62,2.64 8.62,8.568 v 2.708 h -3.51 v -1.22 c 0,-1.488 0.363,-6.305 -5.073,-6.305 -5.391,0 -4.999,4.847 -4.978,6.3 v 1.225 z"
         fill="url(#L)"
         fill-rule="evenodd"
         stroke-width="0.499"
         id="path68"
         style="fill:url(#L)" />
      <path
         d="m 49.03,50.634 v -6.842 c 0,-14.805 8.497,-21.839 21.624,-21.654 13.198,0.185 21.786,6.675 21.786,21.654 v 6.842"
         transform="matrix(0.3957,0,0,0.3957,-54.491,264.855)"
         clip-path="url(#M)"
         fill="none"
         fill-rule="evenodd"
         stroke="#fafafa"
         stroke-width="1.262"
         stroke-opacity="0.615"
         id="path69" />
      <path
         d="m -35.09,284.89 v -2.707 c 0,-5.858 3.362,-8.641 8.556,-8.568 5.223,0.073 8.62,2.64 8.62,8.568 v 2.708 h -3.51 v -1.22 c 0,-1.488 0.363,-6.305 -5.073,-6.305 -5.391,0 -4.999,4.847 -4.978,6.3 v 1.225 z"
         fill="none"
         fill-rule="evenodd"
         stroke="#b7b7b7"
         stroke-width="0.265"
         stroke-opacity="0.899"
         id="path70" />
      <path
         d="m 80.918,50.366 v -4.06 c 0,-4.961 1.21,-21.013 -16.903,-21.013 -17.964,0 -16.655,16.15 -16.585,20.993 v 4.08"
         clip-path="url(#N)"
         transform="matrix(0.30011,0,0,0.30011,-45.709,269.775)"
         fill="none"
         fill-rule="evenodd"
         stroke="#282828"
         stroke-width="1.763"
         stroke-opacity="0.188"
         id="path71" />
      <path
         fill="#ffe16b"
         fill-rule="evenodd"
         stroke-width="0.26"
         stroke-linecap="round"
         stroke-linejoin="round"
         stroke-opacity="0.514"
         paint-order="markers fill stroke"
         d="m -38.115,287.374 h 23.218 v 4.844 h -23.218 z"
         id="path72" />
      <g
         transform="matrix(0.74981,0,0,0.74981,-196.954,305.989)"
         clip-path="url(#O)"
         stroke-width="0.173"
         fill="#0e141f"
         fill-rule="evenodd"
         stroke-linecap="round"
         stroke-linejoin="round"
         stroke-opacity="0.514"
         id="g73">
        <path
           d="m 210.563,-14.632 7.723,-13.377 2.114,1.22 -7.723,13.377 -2.114,-1.22 m 6.01,0 7.723,-13.377 2.114,1.22 -7.723,13.377 -2.114,-1.22 m 6.01,0 7.723,-13.377 2.114,1.22 -7.723,13.377 -2.114,-1.22 m 6.01,0 7.723,-13.377 2.114,1.22 -7.723,13.377 -2.114,-1.22 m 6.011,0 7.722,-13.377 2.114,1.22 -7.723,13.377 -2.113,-1.22"
           paint-order="markers fill stroke"
           id="path73" />
      </g>
      <path
         d="m -14.897,292.218 h -23.218 m 0,-4.844 h 23.218"
         fill="none"
         fill-rule="evenodd"
         stroke="#d48e15"
         stroke-width="0.26"
         stroke-linecap="round"
         stroke-linejoin="round"
         paint-order="markers fill stroke"
         id="path74" />
      <rect
         width="23.223"
         height="20.426001"
         rx="0.74900001"
         ry="0.82300001"
         x="-38.112999"
         y="285.07101"
         style="marker:none"
         color="#000000"
         overflow="visible"
         fill="none"
         stroke="#a8a8a8"
         stroke-width="0.265"
         stroke-opacity="0.774"
         enable-background="accumulate"
         id="rect74" />
      <rect
         transform="matrix(0.26458,0,0,0.26458,-43.435,273.129)"
         style="stroke:url(#Q);marker:none"
         y="45.138"
         x="20.114"
         ry="3.1110001"
         rx="2.8310001"
         height="77.198997"
         width="87.771004"
         clip-path="url(#P)"
         color="#000000"
         overflow="visible"
         fill="none"
         stroke="url(#Q)"
         stroke-width="2"
         stroke-opacity="0.774"
         enable-background="accumulate"
         id="rect75" />
      <path
         clip-path="url(#R)"
         transform="matrix(0.30011,0,0,0.30011,-45.709,269.775)"
         fill="none"
         stroke="url(#S)"
         stroke-width="1.763"
         stroke-opacity="0.827"
         d="m 19.636,83.204 h 88.727 v 29.74 H 19.636 Z"
         id="path75"
         style="stroke:url(#S)" />
    </g>
    <path
       d="m 93.188,60.041 c -11.363,0 -22.055,3.93 -30.108,11.066 -8.123,7.198 -12.598,16.792 -12.598,27.014 0,7.607 2.482,14.864 7.098,21.047 l 50.213,-7.74 a 5.367,5.367 0 0 0 4.496,-6.135 L 105.562,61.656 A 47.739,47.739 0 0 0 93.188,60.041 Z"
       transform="matrix(0.26458,0,0,0.26458,0,263.133)"
       fill="url(#U)"
       stroke-width="3.468"
       opacity="0.576"
       id="path76"
       style="fill:url(#U)" />
    <path
       d="m 19.005,282.506 c 1.585,-1.404 3.69,-2.178 5.927,-2.178 2.236,0 4.341,0.774 5.926,2.178 1.599,1.417 2.48,3.305 2.48,5.317 0,1.92 -0.803,3.728 -2.266,5.12 -0.855,0.827 -2,1.358 -3.06,1.858 a 9.31,9.31 0 0 1 -3.08,0.518 c -2.237,0 -4.342,-0.774 -5.927,-2.178 -1.599,-1.417 -2.48,-3.306 -2.48,-5.318 0,-2.012 0.881,-3.9 2.48,-5.317 z"
       fill="url(#V)"
       stroke-width="0.683"
       id="path77"
       style="fill:url(#V)" />
    <path
       d="m 22.303,273.402 a 0.286,0.75 0 0 1 -0.286,0.75 0.286,0.75 0 0 1 -0.287,-0.749 0.286,0.75 0 0 1 0.286,-0.75 0.286,0.75 0 0 1 0.287,0.747"
       fill-opacity="0"
       stroke-width="0.053"
       stroke-linecap="round"
       stroke-linejoin="round"
       stroke-opacity="0.859"
       paint-order="fill markers stroke"
       id="path78" />
    <path
       d="m 19.206,286.46 a 1.363,1.363 0 0 0 -1.363,1.363 1.363,1.363 0 0 0 1.363,1.364 1.363,1.363 0 0 0 1.363,-1.364 1.363,1.363 0 0 0 -1.363,-1.363 z m 3.817,0 a 1.363,1.363 0 0 0 -1.363,1.363 1.363,1.363 0 0 0 1.363,1.364 1.363,1.363 0 0 0 1.364,-1.364 1.363,1.363 0 0 0 -1.364,-1.363 z m 3.817,0 a 1.363,1.363 0 0 0 -1.363,1.363 1.363,1.363 0 0 0 1.363,1.364 1.363,1.363 0 0 0 1.363,-1.364 1.363,1.363 0 0 0 -1.363,-1.363 z m 3.817,0 a 1.363,1.363 0 0 0 -1.363,1.363 1.363,1.363 0 0 0 1.363,1.364 1.363,1.363 0 0 0 1.364,-1.364 1.363,1.363 0 0 0 -1.364,-1.363 z"
       fill="#ffffff"
       stroke-width="2"
       stroke-linecap="round"
       stroke-linejoin="round"
       stroke-opacity="0.00799997"
       id="path79" />
  </g>
</svg>
