<?xml version="1.0" encoding="UTF-8" standalone="no"?>
<svg
   width="48"
   height="48"
   viewBox="0 0 12.7 12.7"
   version="1.1"
   id="svg23"
   sodipodi:docname="screenie.svg"
   inkscape:version="1.4.4 (unknown)"
   xmlns:inkscape="http://www.inkscape.org/namespaces/inkscape"
   xmlns:sodipodi="http://sodipodi.sourceforge.net/DTD/sodipodi-0.dtd"
   xmlns="http://www.w3.org/2000/svg"
   xmlns:svg="http://www.w3.org/2000/svg">
  <defs
     id="defs23" />
  <sodipodi:namedview
     id="namedview23"
     pagecolor="#ffffff"
     bordercolor="#000000"
     borderopacity="0.25"
     inkscape:showpageshadow="2"
     inkscape:pageopacity="0.0"
     inkscape:pagecheckerboard="0"
     inkscape:deskcolor="#d1d1d1"
     inkscape:zoom="8.3637474"
     inkscape:cx="12.793308"
     inkscape:cy="34.733235"
     inkscape:window-width="1920"
     inkscape:window-height="994"
     inkscape:window-x="0"
     inkscape:window-y="0"
     inkscape:window-maximized="1"
     inkscape:current-layer="svg23" />
  <g
     transform="matrix(0.34587837,0,0,0.34587837,-9.9517678,-90.543222)"
     id="g23">
    <g
       transform="rotate(-8.729,96.087,-433.607)"
       opacity="0.216"
       fill="none"
       stroke="#000000"
       stroke-opacity="0.02"
       id="g17">
      <rect
         width="27.879999"
         height="27.6"
         x="-74.559998"
         y="250.64"
         rx="2.326"
         ry="2.326"
         stroke-width="0.1"
         id="rect1" />
      <rect
         ry="2.326"
         rx="2.326"
         y="250.64"
         x="-74.559998"
         height="27.6"
         width="27.879999"
         stroke-width="0.2"
         id="rect2" />
      <rect
         width="27.879999"
         height="27.6"
         x="-74.559998"
         y="250.64"
         rx="2.326"
         ry="2.326"
         stroke-width="0.3"
         id="rect3" />
      <rect
         ry="2.326"
         rx="2.326"
         y="250.64"
         x="-74.559998"
         height="27.6"
         width="27.879999"
         stroke-width="0.4"
         id="rect4" />
      <rect
         width="27.879999"
         height="27.6"
         x="-74.559998"
         y="250.64"
         rx="2.326"
         ry="2.326"
         stroke-width="0.5"
         id="rect5" />
      <rect
         ry="2.326"
         rx="2.326"
         y="250.64"
         x="-74.559998"
         height="27.6"
         width="27.879999"
         stroke-width="0.6"
         id="rect6" />
      <rect
         width="27.879999"
         height="27.6"
         x="-74.559998"
         y="250.64"
         rx="2.326"
         ry="2.326"
         stroke-width="0.7"
         id="rect7" />
      <rect
         ry="2.326"
         rx="2.326"
         y="250.64"
         x="-74.559998"
         height="27.6"
         width="27.879999"
         stroke-width="0.8"
         id="rect8" />
      <rect
         width="27.879999"
         height="27.6"
         x="-74.559998"
         y="250.64"
         rx="2.326"
         ry="2.326"
         id="rect9" />
      <rect
         ry="2.326"
         rx="2.326"
         y="250.64"
         x="-74.559998"
         height="27.6"
         width="27.879999"
         stroke-width="1.2"
         id="rect10" />
      <rect
         width="27.879999"
         height="27.6"
         x="-74.559998"
         y="250.64"
         rx="2.326"
         ry="2.326"
         stroke-width="1.4"
         id="rect11" />
      <rect
         ry="2.326"
         rx="2.326"
         y="250.64"
         x="-74.559998"
         height="27.6"
         width="27.879999"
         stroke-width="1.6"
         id="rect12" />
      <rect
         width="27.879999"
         height="27.6"
         x="-74.559998"
         y="250.64"
         rx="2.326"
         ry="2.326"
         stroke-width="1.8"
         id="rect13" />
      <rect
         ry="2.326"
         rx="2.326"
         y="250.64"
         x="-74.559998"
         height="27.6"
         width="27.879999"
         stroke-width="2"
         id="rect14" />
      <rect
         width="27.879999"
         height="27.6"
         x="-74.559998"
         y="250.64"
         rx="2.326"
         ry="2.326"
         stroke-width="2.2"
         id="rect15" />
      <rect
         ry="2.326"
         rx="2.326"
         y="250.64"
         x="-74.559998"
         height="27.6"
         width="27.879999"
         stroke-width="2.5"
         id="rect16" />
      <rect
         width="27.879999"
         height="27.6"
         x="-74.559998"
         y="250.64"
         rx="2.326"
         ry="2.326"
         stroke-width="2.8"
         id="rect17" />
    </g>
    <rect
       transform="rotate(-8.73)"
       ry="2.326"
       rx="2.326"
       y="270.245"
       x="-9.8669996"
       height="27.6"
       width="27.879999"
       fill="#ffffff"
       stroke-width="1.6"
       stroke-opacity="0.02"
       id="rect18"
       style="fill:#b7bec8" />
    <path
       d="m 59.371,268 -27.515,4.488 0.052,0.331 0.075,0.458 27.513,-4.487 -0.073,-0.475 z"
       style="line-height:normal;font-variant-ligatures:normal;font-variant-position:normal;font-variant-caps:normal;font-variant-numeric:normal;font-variant-alternates:normal;font-feature-settings:normal;text-indent:0;text-align:start;text-decoration-line:none;text-decoration-style:solid;text-decoration-color:#000000;text-transform:none;text-orientation:mixed;shape-padding:0;isolation:auto;mix-blend-mode:normal"
       color="#000000"
       font-weight="400"
       font-family="sans-serif"
       white-space="normal"
       overflow="visible"
       fill-opacity="0.078"
       stroke-width="3.024"
       id="path18" />
    <path
       d="m 33.56,268.26 22.96,-3.526 a 2.321,2.321 0 0 1 2.652,1.946 l 0.263,1.714 -27.518,4.489 -0.302,-1.972 a 2.321,2.321 0 0 1 1.946,-2.652 z"
       fill="#dbdbde"
       stroke-width="0.265"
       id="path19" />
    <rect
       width="27.879999"
       height="27.6"
       x="-9.8669996"
       y="270.245"
       rx="2.326"
       ry="2.326"
       transform="rotate(-8.73)"
       fill="none"
       stroke="#000000"
       stroke-width="0.05"
       stroke-opacity="0.02"
       id="rect19" />
    <rect
       width="27.879999"
       height="27.6"
       x="-9.8669996"
       y="270.245"
       rx="2.326"
       ry="2.326"
       transform="rotate(-8.73)"
       fill="none"
       stroke-width="0.265"
       id="rect20" />
    <path
       d="m 52.298,272.022 a 3.815,3.815 0 0 0 -0.388,0.033 l -2.672,0.353 a 0.75,0.75 0 1 0 0.197,1.486 l 2.672,-0.353 c 0.318,-0.042 0.542,-0.003 0.653,0.064 0.11,0.068 0.241,0.184 0.31,0.703 l 0.402,3.034 a 0.75,0.75 0 1 0 1.486,-0.198 l -0.402,-3.033 c -0.107,-0.809 -0.47,-1.452 -1.014,-1.785 -0.407,-0.25 -0.842,-0.315 -1.244,-0.304 z m -9.377,1.53 a 0.75,0.75 0 0 0 -0.127,0.009 l -2.673,0.346 c -0.498,0.064 -1.068,0.22 -1.508,0.681 -0.44,0.462 -0.624,1.18 -0.52,1.989 l 0.391,3.033 a 0.75016798,0.75016798 0 1 0 1.488,-0.192 l -0.393,-3.035 c -0.067,-0.52 0.03,-0.666 0.12,-0.76 0.09,-0.094 0.296,-0.187 0.615,-0.228 l 2.672,-0.346 a 0.75,0.75 0 0 0 -0.065,-1.496 z m 5.018,3.698 a 0.436,0.436 0 0 0 -0.102,0.003 l -1.08,0.159 -0.398,0.058 -1.08,0.158 c -0.287,0.042 -0.357,0.316 -0.44,0.593 l -0.2,0.662 -1.785,0.271 a 0.83,0.83 0 0 0 -0.698,0.948 l 0.74,4.87 a 0.83,0.83 0 0 0 0.948,0.698 l 7.707,-1.17 a 0.83,0.83 0 0 0 0.697,-0.948 l -0.739,-4.87 a 0.83,0.83 0 0 0 -0.948,-0.699 l -1.761,0.269 -0.37,-0.558 c -0.14,-0.211 -0.27,-0.422 -0.491,-0.444 z m -0.742,2.041 a 2.327,2.327 0 0 1 2.32,2.32 2.327,2.327 0 0 1 -2.32,2.32 2.327,2.327 0 0 1 -2.32,-2.32 2.327,2.327 0 0 1 2.32,-2.32 z m 0,0.9 c -0.79,0 -1.422,0.63 -1.422,1.42 0,0.79 0.632,1.42 1.422,1.42 0.79,0 1.42,-0.63 1.42,-1.42 0,-0.79 -0.63,-1.42 -1.42,-1.42 z m 7.967,2.245 a 0.75,0.75 0 0 0 -0.74,0.894 l 0.548,3.01 c 0.094,0.515 0.005,0.667 -0.08,0.766 -0.084,0.098 -0.285,0.201 -0.601,0.259 l -2.653,0.483 a 0.75006666,0.75006666 0 1 0 0.268,1.476 l 2.652,-0.482 c 0.494,-0.09 1.056,-0.277 1.471,-0.76 0.416,-0.484 0.564,-1.207 0.418,-2.01 l -0.547,-3.01 a 0.75,0.75 0 0 0 -0.736,-0.626 z m -14.963,2.43 a 0.75,0.75 0 0 0 -0.737,0.897 l 0.557,3.009 c 0.149,0.802 0.543,1.427 1.104,1.732 0.56,0.305 1.15,0.279 1.644,0.187 l 2.65,-0.49 a 0.75,0.75 0 1 0 -0.273,-1.474 l -2.65,0.49 c -0.316,0.058 -0.54,0.03 -0.655,-0.032 -0.114,-0.062 -0.25,-0.17 -0.345,-0.685 l -0.557,-3.01 a 0.75,0.75 0 0 0 -0.738,-0.623 z"
       fill="#525252"
       stroke-width="2.8"
       stroke-opacity="0.02"
       id="path20"
       style="fill:#373e48" />
    <g
       transform="translate(30.824,0.066)"
       stroke-width="0.2"
       stroke-linecap="round"
       stroke-linejoin="round"
       id="g22">
      <circle
         cx="3.9960001"
         cy="270.30801"
         r="1.178"
         fill="#ea6a5f"
         stroke="#da6156"
         id="circle20" />
      <circle
         r="1.178"
         cy="269.798"
         cx="7.4569998"
         fill="#f4bf4f"
         stroke="#e0b869"
         id="circle21" />
      <circle
         cx="10.866"
         cy="269.168"
         r="1.178"
         fill="#66c555"
         stroke="#6aba58"
         id="circle22" />
    </g>
  </g>
</svg>
